<mxfile host="65bd71144e">
    <diagram id="11B4YAHLHuana1yE_Mwt" name="Page-1">
        <mxGraphModel dx="3473" dy="1493" grid="1" gridSize="10" guides="1" tooltips="1" connect="1" arrows="1" fold="1" page="1" pageScale="1" pageWidth="850" pageHeight="1100" math="0" shadow="0">
            <root>
                <mxCell id="0"/>
                <mxCell id="1" parent="0"/>
                <UserObject label="" mermaidData="{&#10;  &quot;data&quot;: &quot;flowchart LR;\n\n%% Styling\n  classDef condition fill:#FFFF70\n  classDef start fill:#B2FF70\n  classDef stop fill:#FF5959\n\n%% Objects\n  start([Start]):::start\n  stop([Stop]):::stop\n\n  st1(Input employee data)\n  st2(Validate data)\n  st3(Save data to database)\n  st4(Display data)\n\n  con1{Is input valid?}:::condition\n\n%% Flow\n\n  start --&gt; st1\n  st1 --&gt; st2\n  st2 --&gt; con1\n  con1 --&gt;|yes| st3\n  con1 --&gt;|no| st1\n  st3 --&gt; st4\n  st4 --&gt; stop&quot;,&#10;  &quot;config&quot;: {&#10;    &quot;theme&quot;: &quot;neutral&quot;,&#10;    &quot;arrowMarkerAbsolute&quot;: false,&#10;    &quot;flowchart&quot;: {&#10;      &quot;htmlLabels&quot;: false&#10;    },&#10;    &quot;sequence&quot;: {&#10;      &quot;diagramMarginX&quot;: 50,&#10;      &quot;diagramMarginY&quot;: 10,&#10;      &quot;actorMargin&quot;: 50,&#10;      &quot;width&quot;: 150,&#10;      &quot;height&quot;: 65,&#10;      &quot;boxMargin&quot;: 10,&#10;      &quot;boxTextMargin&quot;: 5,&#10;      &quot;noteMargin&quot;: 10,&#10;      &quot;messageMargin&quot;: 35,&#10;      &quot;mirrorActors&quot;: true,&#10;      &quot;bottomMarginAdj&quot;: 1,&#10;      &quot;useMaxWidth&quot;: true,&#10;      &quot;rightAngles&quot;: false,&#10;      &quot;showSequenceNumbers&quot;: false&#10;    },&#10;    &quot;gantt&quot;: {&#10;      &quot;titleTopMargin&quot;: 25,&#10;      &quot;barHeight&quot;: 20,&#10;      &quot;barGap&quot;: 4,&#10;      &quot;topPadding&quot;: 50,&#10;      &quot;leftPadding&quot;: 75,&#10;      &quot;gridLineStartPadding&quot;: 35,&#10;      &quot;fontSize&quot;: 11,&#10;      &quot;fontFamily&quot;: &quot;\&quot;Open-Sans\&quot;, \&quot;sans-serif\&quot;&quot;,&#10;      &quot;numberSectionStyles&quot;: 4,&#10;      &quot;axisFormat&quot;: &quot;%Y-%m-%d&quot;&#10;    },&#10;    &quot;securityLevel&quot;: &quot;strict&quot;,&#10;    &quot;startOnLoad&quot;: false,&#10;    &quot;themeVariables&quot;: {&#10;      &quot;primaryColor&quot;: &quot;#eee&quot;,&#10;      &quot;contrast&quot;: &quot;#707070&quot;,&#10;      &quot;secondaryColor&quot;: &quot;hsl(0, 0%, 98.9215686275%)&quot;,&#10;      &quot;background&quot;: &quot;#ffffff&quot;,&#10;      &quot;tertiaryColor&quot;: &quot;hsl(-160, 0%, 93.3333333333%)&quot;,&#10;      &quot;primaryBorderColor&quot;: &quot;hsl(0, 0%, 83.3333333333%)&quot;,&#10;      &quot;secondaryBorderColor&quot;: &quot;hsl(0, 0%, 88.9215686275%)&quot;,&#10;      &quot;tertiaryBorderColor&quot;: &quot;hsl(-160, 0%, 83.3333333333%)&quot;,&#10;      &quot;primaryTextColor&quot;: &quot;#111111&quot;,&#10;      &quot;secondaryTextColor&quot;: &quot;rgb(2.7499999999, 2.7499999999, 2.7499999999)&quot;,&#10;      &quot;tertiaryTextColor&quot;: &quot;rgb(17.0000000001, 17.0000000001, 17.0000000001)&quot;,&#10;      &quot;lineColor&quot;: &quot;#666&quot;,&#10;      &quot;textColor&quot;: &quot;#000000&quot;,&#10;      &quot;mainBkg&quot;: &quot;#eee&quot;,&#10;      &quot;secondBkg&quot;: &quot;hsl(0, 0%, 98.9215686275%)&quot;,&#10;      &quot;border1&quot;: &quot;#999&quot;,&#10;      &quot;border2&quot;: &quot;#707070&quot;,&#10;      &quot;note&quot;: &quot;#ffa&quot;,&#10;      &quot;text&quot;: &quot;#333&quot;,&#10;      &quot;critical&quot;: &quot;#d42&quot;,&#10;      &quot;done&quot;: &quot;#bbb&quot;,&#10;      &quot;arrowheadColor&quot;: &quot;#333333&quot;,&#10;      &quot;fontFamily&quot;: &quot;\&quot;trebuchet ms\&quot;, verdana, arial, sans-serif&quot;,&#10;      &quot;fontSize&quot;: &quot;16px&quot;,&#10;      &quot;nodeBkg&quot;: &quot;#eee&quot;,&#10;      &quot;nodeBorder&quot;: &quot;#999&quot;,&#10;      &quot;clusterBkg&quot;: &quot;hsl(0, 0%, 98.9215686275%)&quot;,&#10;      &quot;clusterBorder&quot;: &quot;#707070&quot;,&#10;      &quot;defaultLinkColor&quot;: &quot;#666&quot;,&#10;      &quot;titleColor&quot;: &quot;#333&quot;,&#10;      &quot;edgeLabelBackground&quot;: &quot;white&quot;,&#10;      &quot;actorBorder&quot;: &quot;hsl(0, 0%, 83%)&quot;,&#10;      &quot;actorBkg&quot;: &quot;#eee&quot;,&#10;      &quot;actorTextColor&quot;: &quot;#333&quot;,&#10;      &quot;actorLineColor&quot;: &quot;#666&quot;,&#10;      &quot;signalColor&quot;: &quot;#333&quot;,&#10;      &quot;signalTextColor&quot;: &quot;#333&quot;,&#10;      &quot;labelBoxBkgColor&quot;: &quot;#eee&quot;,&#10;      &quot;labelBoxBorderColor&quot;: &quot;hsl(0, 0%, 83%)&quot;,&#10;      &quot;labelTextColor&quot;: &quot;#333&quot;,&#10;      &quot;loopTextColor&quot;: &quot;#333&quot;,&#10;      &quot;noteBorderColor&quot;: &quot;#999&quot;,&#10;      &quot;noteBkgColor&quot;: &quot;#666&quot;,&#10;      &quot;noteTextColor&quot;: &quot;#fff&quot;,&#10;      &quot;activationBorderColor&quot;: &quot;#666&quot;,&#10;      &quot;activationBkgColor&quot;: &quot;#f4f4f4&quot;,&#10;      &quot;sequenceNumberColor&quot;: &quot;white&quot;,&#10;      &quot;sectionBkgColor&quot;: &quot;hsl(0, 0%, 73.9215686275%)&quot;,&#10;      &quot;altSectionBkgColor&quot;: &quot;white&quot;,&#10;      &quot;sectionBkgColor2&quot;: &quot;hsl(0, 0%, 73.9215686275%)&quot;,&#10;      &quot;excludeBkgColor&quot;: &quot;#eeeeee&quot;,&#10;      &quot;taskBorderColor&quot;: &quot;hsl(0, 0%, 33.9215686275%)&quot;,&#10;      &quot;taskBkgColor&quot;: &quot;#707070&quot;,&#10;      &quot;taskTextLightColor&quot;: &quot;white&quot;,&#10;      &quot;taskTextColor&quot;: &quot;white&quot;,&#10;      &quot;taskTextDarkColor&quot;: &quot;#333&quot;,&#10;      &quot;taskTextOutsideColor&quot;: &quot;#333&quot;,&#10;      &quot;taskTextClickableColor&quot;: &quot;#003163&quot;,&#10;      &quot;activeTaskBorderColor&quot;: &quot;hsl(0, 0%, 33.9215686275%)&quot;,&#10;      &quot;activeTaskBkgColor&quot;: &quot;#eee&quot;,&#10;      &quot;gridColor&quot;: &quot;hsl(0, 0%, 90%)&quot;,&#10;      &quot;doneTaskBkgColor&quot;: &quot;#bbb&quot;,&#10;      &quot;doneTaskBorderColor&quot;: &quot;#666&quot;,&#10;      &quot;critBkgColor&quot;: &quot;#d42&quot;,&#10;      &quot;critBorderColor&quot;: &quot;hsl(10.9090909091, 73.3333333333%, 40%)&quot;,&#10;      &quot;todayLineColor&quot;: &quot;#d42&quot;,&#10;      &quot;personBorder&quot;: &quot;calculated&quot;,&#10;      &quot;personBkg&quot;: &quot;calculated&quot;,&#10;      &quot;labelColor&quot;: &quot;black&quot;,&#10;      &quot;errorBkgColor&quot;: &quot;#552222&quot;,&#10;      &quot;errorTextColor&quot;: &quot;#552222&quot;,&#10;      &quot;transitionColor&quot;: &quot;#000&quot;,&#10;      &quot;transitionLabelColor&quot;: &quot;#000000&quot;,&#10;      &quot;stateLabelColor&quot;: &quot;#111111&quot;,&#10;      &quot;stateBkg&quot;: &quot;#eee&quot;,&#10;      &quot;labelBackgroundColor&quot;: &quot;#eee&quot;,&#10;      &quot;compositeBackground&quot;: &quot;#ffffff&quot;,&#10;      &quot;altBackground&quot;: &quot;#f4f4f4&quot;,&#10;      &quot;compositeTitleBackground&quot;: &quot;#eee&quot;,&#10;      &quot;stateBorder&quot;: &quot;#000&quot;,&#10;      &quot;innerEndBackground&quot;: &quot;hsl(0, 0%, 83.3333333333%)&quot;,&#10;      &quot;specialStateColor&quot;: &quot;#222&quot;,&#10;      &quot;classText&quot;: &quot;#111111&quot;,&#10;      &quot;fillType0&quot;: &quot;#eee&quot;,&#10;      &quot;fillType1&quot;: &quot;hsl(0, 0%, 98.9215686275%)&quot;,&#10;      &quot;fillType2&quot;: &quot;hsl(64, 0%, 93.3333333333%)&quot;,&#10;      &quot;fillType3&quot;: &quot;hsl(64, 0%, 98.9215686275%)&quot;,&#10;      &quot;fillType4&quot;: &quot;hsl(-64, 0%, 93.3333333333%)&quot;,&#10;      &quot;fillType5&quot;: &quot;hsl(-64, 0%, 98.9215686275%)&quot;,&#10;      &quot;fillType6&quot;: &quot;hsl(128, 0%, 93.3333333333%)&quot;,&#10;      &quot;fillType7&quot;: &quot;hsl(128, 0%, 98.9215686275%)&quot;,&#10;      &quot;pie1&quot;: &quot;#F4F4F4&quot;,&#10;      &quot;pie2&quot;: &quot;#555&quot;,&#10;      &quot;pie3&quot;: &quot;#BBB&quot;,&#10;      &quot;pie4&quot;: &quot;#777&quot;,&#10;      &quot;pie5&quot;: &quot;#999&quot;,&#10;      &quot;pie6&quot;: &quot;#DDD&quot;,&#10;      &quot;pie7&quot;: &quot;#FFF&quot;,&#10;      &quot;pie8&quot;: &quot;#DDD&quot;,&#10;      &quot;pie9&quot;: &quot;#BBB&quot;,&#10;      &quot;pie10&quot;: &quot;#999&quot;,&#10;      &quot;pie11&quot;: &quot;#777&quot;,&#10;      &quot;pie12&quot;: &quot;#555&quot;,&#10;      &quot;pieTitleTextSize&quot;: &quot;25px&quot;,&#10;      &quot;pieTitleTextColor&quot;: &quot;#333&quot;,&#10;      &quot;pieSectionTextSize&quot;: &quot;17px&quot;,&#10;      &quot;pieSectionTextColor&quot;: &quot;#000000&quot;,&#10;      &quot;pieLegendTextSize&quot;: &quot;17px&quot;,&#10;      &quot;pieLegendTextColor&quot;: &quot;#333&quot;,&#10;      &quot;pieStrokeColor&quot;: &quot;black&quot;,&#10;      &quot;pieStrokeWidth&quot;: &quot;2px&quot;,&#10;      &quot;pieOpacity&quot;: &quot;0.7&quot;,&#10;      &quot;requirementBackground&quot;: &quot;#eee&quot;,&#10;      &quot;requirementBorderColor&quot;: &quot;hsl(0, 0%, 83.3333333333%)&quot;,&#10;      &quot;requirementBorderSize&quot;: &quot;hsl(0, 0%, 83.3333333333%)&quot;,&#10;      &quot;requirementTextColor&quot;: &quot;#111111&quot;,&#10;      &quot;relationColor&quot;: &quot;#666&quot;,&#10;      &quot;relationLabelBackground&quot;: &quot;white&quot;,&#10;      &quot;relationLabelColor&quot;: &quot;#333&quot;,&#10;      &quot;git0&quot;: &quot;hsl(0, 0%, 70.6862745098%)&quot;,&#10;      &quot;git1&quot;: &quot;#555&quot;,&#10;      &quot;git2&quot;: &quot;#BBB&quot;,&#10;      &quot;git3&quot;: &quot;#777&quot;,&#10;      &quot;git4&quot;: &quot;#999&quot;,&#10;      &quot;git5&quot;: &quot;#DDD&quot;,&#10;      &quot;git6&quot;: &quot;#FFF&quot;,&#10;      &quot;git7&quot;: &quot;#DDD&quot;,&#10;      &quot;gitInv0&quot;: &quot;rgb(74.75, 74.75, 74.75)&quot;,&#10;      &quot;gitInv1&quot;: &quot;#aaaaaa&quot;,&#10;      &quot;gitInv2&quot;: &quot;#444444&quot;,&#10;      &quot;gitInv3&quot;: &quot;#888888&quot;,&#10;      &quot;gitInv4&quot;: &quot;#666666&quot;,&#10;      &quot;gitInv5&quot;: &quot;#222222&quot;,&#10;      &quot;gitInv6&quot;: &quot;#000000&quot;,&#10;      &quot;gitInv7&quot;: &quot;#222222&quot;,&#10;      &quot;branchLabelColor&quot;: &quot;#333&quot;,&#10;      &quot;gitBranchLabel0&quot;: &quot;#333&quot;,&#10;      &quot;gitBranchLabel1&quot;: &quot;white&quot;,&#10;      &quot;gitBranchLabel2&quot;: &quot;#333&quot;,&#10;      &quot;gitBranchLabel3&quot;: &quot;white&quot;,&#10;      &quot;gitBranchLabel4&quot;: &quot;#333&quot;,&#10;      &quot;gitBranchLabel5&quot;: &quot;#333&quot;,&#10;      &quot;gitBranchLabel6&quot;: &quot;#333&quot;,&#10;      &quot;gitBranchLabel7&quot;: &quot;#333&quot;,&#10;      &quot;tagLabelColor&quot;: &quot;#111111&quot;,&#10;      &quot;tagLabelBackground&quot;: &quot;#eee&quot;,&#10;      &quot;tagLabelBorder&quot;: &quot;hsl(0, 0%, 83.3333333333%)&quot;,&#10;      &quot;tagLabelFontSize&quot;: &quot;10px&quot;,&#10;      &quot;commitLabelColor&quot;: &quot;rgb(2.7499999999, 2.7499999999, 2.7499999999)&quot;,&#10;      &quot;commitLabelBackground&quot;: &quot;hsl(0, 0%, 98.9215686275%)&quot;,&#10;      &quot;commitLabelFontSize&quot;: &quot;10px&quot;&#10;    }&#10;  }&#10;}" id="3">
                    <mxCell style="shape=image;noLabel=1;verticalAlign=top;imageAspect=1;image=data:image/svg+xml,PHN2ZyB2aWV3Qm94PSIwIDAgMTE4Ni42MzE2MjIzMTQ0NTMxIDE3MS4xMjgxODkwODY5MTQwNiIgc3R5bGU9Im1heC13aWR0aDogMTE4Ni42MzE2MjIzMTQ0NTMxcHg7IiBoZWlnaHQ9IjE3MS4xMjgxODkwODY5MTQwNiIgYXJpYS1sYWJlbGxlZGJ5PSJjaGFydC10aXRsZS1nZU1lcm1haWRPdXRwdXQtMTczNDM2NDYwNzUzNiBjaGFydC1kZXNjLWdlTWVybWFpZE91dHB1dC0xNzM0MzY0NjA3NTM2IiByb2xlPSJpbWciIHhtbG5zOnhsaW5rPSJodHRwOi8vd3d3LnczLm9yZy8xOTk5L3hsaW5rIiB4bWxucz0iaHR0cDovL3d3dy53My5vcmcvMjAwMC9zdmciIHdpZHRoPSIxMDAlIiBpZD0iZ2VNZXJtYWlkT3V0cHV0LTE3MzQzNjQ2MDc1MzYiPjx0aXRsZSBpZD0iY2hhcnQtdGl0bGUtZ2VNZXJtYWlkT3V0cHV0LTE3MzQzNjQ2MDc1MzYiPjwvdGl0bGU+PGRlc2MgaWQ9ImNoYXJ0LWRlc2MtZ2VNZXJtYWlkT3V0cHV0LTE3MzQzNjQ2MDc1MzYiPjwvZGVzYz48c3R5bGU+I2dlTWVybWFpZE91dHB1dC0xNzM0MzY0NjA3NTM2IHtmb250LWZhbWlseToidHJlYnVjaGV0IG1zIix2ZXJkYW5hLGFyaWFsLHNhbnMtc2VyaWY7Zm9udC1zaXplOjE2cHg7ZmlsbDojMDAwMDAwO30jZ2VNZXJtYWlkT3V0cHV0LTE3MzQzNjQ2MDc1MzYgLmVycm9yLWljb257ZmlsbDojNTUyMjIyO30jZ2VNZXJtYWlkT3V0cHV0LTE3MzQzNjQ2MDc1MzYgLmVycm9yLXRleHR7ZmlsbDojNTUyMjIyO3N0cm9rZTojNTUyMjIyO30jZ2VNZXJtYWlkT3V0cHV0LTE3MzQzNjQ2MDc1MzYgLmVkZ2UtdGhpY2tuZXNzLW5vcm1hbHtzdHJva2Utd2lkdGg6MnB4O30jZ2VNZXJtYWlkT3V0cHV0LTE3MzQzNjQ2MDc1MzYgLmVkZ2UtdGhpY2tuZXNzLXRoaWNre3N0cm9rZS13aWR0aDozLjVweDt9I2dlTWVybWFpZE91dHB1dC0xNzM0MzY0NjA3NTM2IC5lZGdlLXBhdHRlcm4tc29saWR7c3Ryb2tlLWRhc2hhcnJheTowO30jZ2VNZXJtYWlkT3V0cHV0LTE3MzQzNjQ2MDc1MzYgLmVkZ2UtcGF0dGVybi1kYXNoZWR7c3Ryb2tlLWRhc2hhcnJheTozO30jZ2VNZXJtYWlkT3V0cHV0LTE3MzQzNjQ2MDc1MzYgLmVkZ2UtcGF0dGVybi1kb3R0ZWR7c3Ryb2tlLWRhc2hhcnJheToyO30jZ2VNZXJtYWlkT3V0cHV0LTE3MzQzNjQ2MDc1MzYgLm1hcmtlcntmaWxsOiM2NjY7c3Ryb2tlOiM2NjY7fSNnZU1lcm1haWRPdXRwdXQtMTczNDM2NDYwNzUzNiAubWFya2VyLmNyb3Nze3N0cm9rZTojNjY2O30jZ2VNZXJtYWlkT3V0cHV0LTE3MzQzNjQ2MDc1MzYgc3Zne2ZvbnQtZmFtaWx5OiJ0cmVidWNoZXQgbXMiLHZlcmRhbmEsYXJpYWwsc2Fucy1zZXJpZjtmb250LXNpemU6MTZweDt9I2dlTWVybWFpZE91dHB1dC0xNzM0MzY0NjA3NTM2IC5sYWJlbHtmb250LWZhbWlseToidHJlYnVjaGV0IG1zIix2ZXJkYW5hLGFyaWFsLHNhbnMtc2VyaWY7Y29sb3I6IzAwMDAwMDt9I2dlTWVybWFpZE91dHB1dC0xNzM0MzY0NjA3NTM2IC5jbHVzdGVyLWxhYmVsIHRleHR7ZmlsbDojMzMzO30jZ2VNZXJtYWlkT3V0cHV0LTE3MzQzNjQ2MDc1MzYgLmNsdXN0ZXItbGFiZWwgc3Bhbntjb2xvcjojMzMzO30jZ2VNZXJtYWlkT3V0cHV0LTE3MzQzNjQ2MDc1MzYgLmxhYmVsIHRleHQsI2dlTWVybWFpZE91dHB1dC0xNzM0MzY0NjA3NTM2IHNwYW57ZmlsbDojMDAwMDAwO2NvbG9yOiMwMDAwMDA7fSNnZU1lcm1haWRPdXRwdXQtMTczNDM2NDYwNzUzNiAubm9kZSByZWN0LCNnZU1lcm1haWRPdXRwdXQtMTczNDM2NDYwNzUzNiAubm9kZSBjaXJjbGUsI2dlTWVybWFpZE91dHB1dC0xNzM0MzY0NjA3NTM2IC5ub2RlIGVsbGlwc2UsI2dlTWVybWFpZE91dHB1dC0xNzM0MzY0NjA3NTM2IC5ub2RlIHBvbHlnb24sI2dlTWVybWFpZE91dHB1dC0xNzM0MzY0NjA3NTM2IC5ub2RlIHBhdGh7ZmlsbDojZWVlO3N0cm9rZTojOTk5O3N0cm9rZS13aWR0aDoxcHg7fSNnZU1lcm1haWRPdXRwdXQtMTczNDM2NDYwNzUzNiAubm9kZSAubGFiZWx7dGV4dC1hbGlnbjpjZW50ZXI7fSNnZU1lcm1haWRPdXRwdXQtMTczNDM2NDYwNzUzNiAubm9kZS5jbGlja2FibGV7Y3Vyc29yOnBvaW50ZXI7fSNnZU1lcm1haWRPdXRwdXQtMTczNDM2NDYwNzUzNiAuYXJyb3doZWFkUGF0aHtmaWxsOiMzMzMzMzM7fSNnZU1lcm1haWRPdXRwdXQtMTczNDM2NDYwNzUzNiAuZWRnZVBhdGggLnBhdGh7c3Ryb2tlOiM2NjY7c3Ryb2tlLXdpZHRoOjIuMHB4O30jZ2VNZXJtYWlkT3V0cHV0LTE3MzQzNjQ2MDc1MzYgLmZsb3djaGFydC1saW5re3N0cm9rZTojNjY2O2ZpbGw6bm9uZTt9I2dlTWVybWFpZE91dHB1dC0xNzM0MzY0NjA3NTM2IC5lZGdlTGFiZWx7YmFja2dyb3VuZC1jb2xvcjp3aGl0ZTt0ZXh0LWFsaWduOmNlbnRlcjt9I2dlTWVybWFpZE91dHB1dC0xNzM0MzY0NjA3NTM2IC5lZGdlTGFiZWwgcmVjdHtvcGFjaXR5OjAuNTtiYWNrZ3JvdW5kLWNvbG9yOndoaXRlO2ZpbGw6d2hpdGU7fSNnZU1lcm1haWRPdXRwdXQtMTczNDM2NDYwNzUzNiAuY2x1c3RlciByZWN0e2ZpbGw6aHNsKDAsIDAlLCA5OC45MjE1Njg2Mjc1JSk7c3Ryb2tlOiM3MDcwNzA7c3Ryb2tlLXdpZHRoOjFweDt9I2dlTWVybWFpZE91dHB1dC0xNzM0MzY0NjA3NTM2IC5jbHVzdGVyIHRleHR7ZmlsbDojMzMzO30jZ2VNZXJtYWlkT3V0cHV0LTE3MzQzNjQ2MDc1MzYgLmNsdXN0ZXIgc3Bhbntjb2xvcjojMzMzO30jZ2VNZXJtYWlkT3V0cHV0LTE3MzQzNjQ2MDc1MzYgZGl2Lm1lcm1haWRUb29sdGlwe3Bvc2l0aW9uOmFic29sdXRlO3RleHQtYWxpZ246Y2VudGVyO21heC13aWR0aDoyMDBweDtwYWRkaW5nOjJweDtmb250LWZhbWlseToidHJlYnVjaGV0IG1zIix2ZXJkYW5hLGFyaWFsLHNhbnMtc2VyaWY7Zm9udC1zaXplOjEycHg7YmFja2dyb3VuZDpoc2woLTE2MCwgMCUsIDkzLjMzMzMzMzMzMzMlKTtib3JkZXI6MXB4IHNvbGlkICM3MDcwNzA7Ym9yZGVyLXJhZGl1czoycHg7cG9pbnRlci1ldmVudHM6bm9uZTt6LWluZGV4OjEwMDt9I2dlTWVybWFpZE91dHB1dC0xNzM0MzY0NjA3NTM2IDpyb290ey0tbWVybWFpZC1mb250LWZhbWlseToidHJlYnVjaGV0IG1zIix2ZXJkYW5hLGFyaWFsLHNhbnMtc2VyaWY7fSNnZU1lcm1haWRPdXRwdXQtMTczNDM2NDYwNzUzNiAuY29uZGl0aW9uIHBhdGh7ZmlsbDojRkZGRjcwIWltcG9ydGFudDt9I2dlTWVybWFpZE91dHB1dC0xNzM0MzY0NjA3NTM2IC5jb25kaXRpb24gcmVjdHtmaWxsOiNGRkZGNzAhaW1wb3J0YW50O30jZ2VNZXJtYWlkT3V0cHV0LTE3MzQzNjQ2MDc1MzYgLmNvbmRpdGlvbiBwb2x5Z29ue2ZpbGw6I0ZGRkY3MCFpbXBvcnRhbnQ7fSNnZU1lcm1haWRPdXRwdXQtMTczNDM2NDYwNzUzNiAuY29uZGl0aW9uIGVsbGlwc2V7ZmlsbDojRkZGRjcwIWltcG9ydGFudDt9I2dlTWVybWFpZE91dHB1dC0xNzM0MzY0NjA3NTM2IC5jb25kaXRpb24gY2lyY2xle2ZpbGw6I0ZGRkY3MCFpbXBvcnRhbnQ7fSNnZU1lcm1haWRPdXRwdXQtMTczNDM2NDYwNzUzNiAuc3RhcnQgcGF0aHtmaWxsOiNCMkZGNzAhaW1wb3J0YW50O30jZ2VNZXJtYWlkT3V0cHV0LTE3MzQzNjQ2MDc1MzYgLnN0YXJ0IHJlY3R7ZmlsbDojQjJGRjcwIWltcG9ydGFudDt9I2dlTWVybWFpZE91dHB1dC0xNzM0MzY0NjA3NTM2IC5zdGFydCBwb2x5Z29ue2ZpbGw6I0IyRkY3MCFpbXBvcnRhbnQ7fSNnZU1lcm1haWRPdXRwdXQtMTczNDM2NDYwNzUzNiAuc3RhcnQgZWxsaXBzZXtmaWxsOiNCMkZGNzAhaW1wb3J0YW50O30jZ2VNZXJtYWlkT3V0cHV0LTE3MzQzNjQ2MDc1MzYgLnN0YXJ0IGNpcmNsZXtmaWxsOiNCMkZGNzAhaW1wb3J0YW50O30jZ2VNZXJtYWlkT3V0cHV0LTE3MzQzNjQ2MDc1MzYgLnN0b3AgcGF0aHtmaWxsOiNGRjU5NTkhaW1wb3J0YW50O30jZ2VNZXJtYWlkT3V0cHV0LTE3MzQzNjQ2MDc1MzYgLnN0b3AgcmVjdHtmaWxsOiNGRjU5NTkhaW1wb3J0YW50O30jZ2VNZXJtYWlkT3V0cHV0LTE3MzQzNjQ2MDc1MzYgLnN0b3AgcG9seWdvbntmaWxsOiNGRjU5NTkhaW1wb3J0YW50O30jZ2VNZXJtYWlkT3V0cHV0LTE3MzQzNjQ2MDc1MzYgLnN0b3AgZWxsaXBzZXtmaWxsOiNGRjU5NTkhaW1wb3J0YW50O30jZ2VNZXJtYWlkT3V0cHV0LTE3MzQzNjQ2MDc1MzYgLnN0b3AgY2lyY2xle2ZpbGw6I0ZGNTk1OSFpbXBvcnRhbnQ7fTwvc3R5bGU+PGcgdHJhbnNmb3JtPSJ0cmFuc2xhdGUoMCwgMCkiPjxtYXJrZXIgb3JpZW50PSJhdXRvIiBtYXJrZXJIZWlnaHQ9IjEyIiBtYXJrZXJXaWR0aD0iMTIiIG1hcmtlclVuaXRzPSJ1c2VyU3BhY2VPblVzZSIgcmVmWT0iNSIgcmVmWD0iOSIgdmlld0JveD0iMCAwIDEwIDEwIiBjbGFzcz0ibWFya2VyIGZsb3djaGFydCIgaWQ9ImZsb3djaGFydC1wb2ludEVuZCI+PHBhdGggc3R5bGU9InN0cm9rZS13aWR0aDogMTsgc3Ryb2tlLWRhc2hhcnJheTogMSwgMDsiIGNsYXNzPSJhcnJvd01hcmtlclBhdGgiIGQ9Ik0gMCAwIEwgMTAgNSBMIDAgMTAgeiI+PC9wYXRoPjwvbWFya2VyPjxtYXJrZXIgb3JpZW50PSJhdXRvIiBtYXJrZXJIZWlnaHQ9IjEyIiBtYXJrZXJXaWR0aD0iMTIiIG1hcmtlclVuaXRzPSJ1c2VyU3BhY2VPblVzZSIgcmVmWT0iNSIgcmVmWD0iMCIgdmlld0JveD0iMCAwIDEwIDEwIiBjbGFzcz0ibWFya2VyIGZsb3djaGFydCIgaWQ9ImZsb3djaGFydC1wb2ludFN0YXJ0Ij48cGF0aCBzdHlsZT0ic3Ryb2tlLXdpZHRoOiAxOyBzdHJva2UtZGFzaGFycmF5OiAxLCAwOyIgY2xhc3M9ImFycm93TWFya2VyUGF0aCIgZD0iTSAwIDUgTCAxMCAxMCBMIDEwIDAgeiI+PC9wYXRoPjwvbWFya2VyPjxtYXJrZXIgb3JpZW50PSJhdXRvIiBtYXJrZXJIZWlnaHQ9IjExIiBtYXJrZXJXaWR0aD0iMTEiIG1hcmtlclVuaXRzPSJ1c2VyU3BhY2VPblVzZSIgcmVmWT0iNSIgcmVmWD0iMTEiIHZpZXdCb3g9IjAgMCAxMCAxMCIgY2xhc3M9Im1hcmtlciBmbG93Y2hhcnQiIGlkPSJmbG93Y2hhcnQtY2lyY2xlRW5kIj48Y2lyY2xlIHN0eWxlPSJzdHJva2Utd2lkdGg6IDE7IHN0cm9rZS1kYXNoYXJyYXk6IDEsIDA7IiBjbGFzcz0iYXJyb3dNYXJrZXJQYXRoIiByPSI1IiBjeT0iNSIgY3g9IjUiPjwvY2lyY2xlPjwvbWFya2VyPjxtYXJrZXIgb3JpZW50PSJhdXRvIiBtYXJrZXJIZWlnaHQ9IjExIiBtYXJrZXJXaWR0aD0iMTEiIG1hcmtlclVuaXRzPSJ1c2VyU3BhY2VPblVzZSIgcmVmWT0iNSIgcmVmWD0iLTEiIHZpZXdCb3g9IjAgMCAxMCAxMCIgY2xhc3M9Im1hcmtlciBmbG93Y2hhcnQiIGlkPSJmbG93Y2hhcnQtY2lyY2xlU3RhcnQiPjxjaXJjbGUgc3R5bGU9InN0cm9rZS13aWR0aDogMTsgc3Ryb2tlLWRhc2hhcnJheTogMSwgMDsiIGNsYXNzPSJhcnJvd01hcmtlclBhdGgiIHI9IjUiIGN5PSI1IiBjeD0iNSI+PC9jaXJjbGU+PC9tYXJrZXI+PG1hcmtlciBvcmllbnQ9ImF1dG8iIG1hcmtlckhlaWdodD0iMTEiIG1hcmtlcldpZHRoPSIxMSIgbWFya2VyVW5pdHM9InVzZXJTcGFjZU9uVXNlIiByZWZZPSI1LjIiIHJlZlg9IjEyIiB2aWV3Qm94PSIwIDAgMTEgMTEiIGNsYXNzPSJtYXJrZXIgY3Jvc3MgZmxvd2NoYXJ0IiBpZD0iZmxvd2NoYXJ0LWNyb3NzRW5kIj48cGF0aCBzdHlsZT0ic3Ryb2tlLXdpZHRoOiAyOyBzdHJva2UtZGFzaGFycmF5OiAxLCAwOyIgY2xhc3M9ImFycm93TWFya2VyUGF0aCIgZD0iTSAxLDEgbCA5LDkgTSAxMCwxIGwgLTksOSI+PC9wYXRoPjwvbWFya2VyPjxtYXJrZXIgb3JpZW50PSJhdXRvIiBtYXJrZXJIZWlnaHQ9IjExIiBtYXJrZXJXaWR0aD0iMTEiIG1hcmtlclVuaXRzPSJ1c2VyU3BhY2VPblVzZSIgcmVmWT0iNS4yIiByZWZYPSItMSIgdmlld0JveD0iMCAwIDExIDExIiBjbGFzcz0ibWFya2VyIGNyb3NzIGZsb3djaGFydCIgaWQ9ImZsb3djaGFydC1jcm9zc1N0YXJ0Ij48cGF0aCBzdHlsZT0ic3Ryb2tlLXdpZHRoOiAyOyBzdHJva2UtZGFzaGFycmF5OiAxLCAwOyIgY2xhc3M9ImFycm93TWFya2VyUGF0aCIgZD0iTSAxLDEgbCA5LDkgTSAxMCwxIGwgLTksOSI+PC9wYXRoPjwvbWFya2VyPjxnIGNsYXNzPSJyb290Ij48ZyBjbGFzcz0iY2x1c3RlcnMiPjwvZz48ZyBjbGFzcz0iZWRnZVBhdGhzIj48cGF0aCBtYXJrZXItZW5kPSJ1cmwoI2Zsb3djaGFydC1wb2ludEVuZCkiIHN0eWxlPSJmaWxsOm5vbmU7IiBjbGFzcz0iZWRnZS10aGlja25lc3Mtbm9ybWFsIGVkZ2UtcGF0dGVybi1zb2xpZCBmbG93Y2hhcnQtbGluayBMUy1zdGFydCBMRS1zdDEiIGlkPSJMLXN0YXJ0LXN0MS0wIiBkPSJNNjguMzk0MDU4MjI3NTM5MDYsODUuNTY0MDk0NTQzNDU3MDNMNzIuNTYwNzI0ODk0MjA1NzMsODUuNTY0MDk0NTQzNDU3MDNDNzYuNzI3MzkxNTYwODcyMzksODUuNTY0MDk0NTQzNDU3MDMsODUuMDYwNzI0ODk0MjA1NzMsODUuNTY0MDk0NTQzNDU3MDMsOTMuMzk0MDU4MjI3NTM5MDYsODUuNTY0MDk0NTQzNDU3MDNDMTAxLjcyNzM5MTU2MDg3MjM5LDg1LjU2NDA5NDU0MzQ1NzAzLDExMC4wNjA3MjQ4OTQyMDU3Myw4NS41NjQwOTQ1NDM0NTcwMywxMTQuMjI3MzkxNTYwODcyMzksODUuNTY0MDk0NTQzNDU3MDNMMTE4LjM5NDA1ODIyNzUzOTA2LDg1LjU2NDA5NDU0MzQ1NzAzIj48L3BhdGg+PHBhdGggbWFya2VyLWVuZD0idXJsKCNmbG93Y2hhcnQtcG9pbnRFbmQpIiBzdHlsZT0iZmlsbDpub25lOyIgY2xhc3M9ImVkZ2UtdGhpY2tuZXNzLW5vcm1hbCBlZGdlLXBhdHRlcm4tc29saWQgZmxvd2NoYXJ0LWxpbmsgTFMtc3QxIExFLXN0MiIgaWQ9Ikwtc3QxLXN0Mi0wIiBkPSJNMjY3LjQ2NjA2NjQ2Mzk3MzE2LDY3LjA2NDA5NDU0MzQ1NzAzTDI3NS4zMjY0NjA5MjQ1Njc0Nyw2NC43NzI0Mjc4NzY3OTAzNkMyODMuMTg2ODU1Mzg1MTYxOCw2Mi40ODA3NjEyMTAxMjM2OTYsMjk4LjkwNzY0NDMwNjM1MDQ1LDU3Ljg5NzQyNzg3Njc5MDM3LDMxMC45MzQ3MDU0MzM2MTE0NCw1NS42MDU3NjEyMTAxMjM2OTZDMzIyLjk2MTc2NjU2MDg3MjQsNTMuMzE0MDk0NTQzNDU3MDMsMzMxLjI5NTA5OTg5NDIwNTc1LDUzLjMxNDA5NDU0MzQ1NzAzLDMzNS40NjE3NjY1NjA4NzI0LDUzLjMxNDA5NDU0MzQ1NzAzTDMzOS42Mjg0MzMyMjc1MzkwNiw1My4zMTQwOTQ1NDM0NTcwMyI+PC9wYXRoPjxwYXRoIG1hcmtlci1lbmQ9InVybCgjZmxvd2NoYXJ0LXBvaW50RW5kKSIgc3R5bGU9ImZpbGw6bm9uZTsiIGNsYXNzPSJlZGdlLXRoaWNrbmVzcy1ub3JtYWwgZWRnZS1wYXR0ZXJuLXNvbGlkIGZsb3djaGFydC1saW5rIExTLXN0MiBMRS1jb24xIiBpZD0iTC1zdDItY29uMS0wIiBkPSJNNDUyLjQ4NzgwODIyNzUzOTA2LDUzLjMxNDA5NDU0MzQ1NzAzTDQ1Ni42NTQ0NzQ4OTQyMDU3NSw1My4zMTQwOTQ1NDM0NTcwM0M0NjAuODIxMTQxNTYwODcyNCw1My4zMTQwOTQ1NDM0NTcwMyw0NjkuMTU0NDc0ODk0MjA1NzUsNTMuMzE0MDk0NTQzNDU3MDMsNDgwLjY2MzYwMDE3NjQ0MTY2LDU1LjY3OTk2OTI2MTIyMTExQzQ5Mi4xNzI3MjU0NTg2Nzc2LDU4LjA0NTg0Mzk3ODk4NTE4LDUwNi44NTc2NDI2ODk4MTYwMyw2Mi43Nzc1OTM0MTQ1MTMzNSw1MTQuMjAwMTAxMzA1Mzg1NCw2NS4xNDM0NjgxMzIyNzc0Mkw1MjEuNTQyNTU5OTIwOTU0NSw2Ny41MDkzNDI4NTAwNDE1Ij48L3BhdGg+PHBhdGggbWFya2VyLWVuZD0idXJsKCNmbG93Y2hhcnQtcG9pbnRFbmQpIiBzdHlsZT0iZmlsbDpub25lOyIgY2xhc3M9ImVkZ2UtdGhpY2tuZXNzLW5vcm1hbCBlZGdlLXBhdHRlcm4tc29saWQgZmxvd2NoYXJ0LWxpbmsgTFMtY29uMSBMRS1zdDMiIGlkPSJMLWNvbjEtc3QzLTAiIGQ9Ik02NTguMTE1OTk3MzE0NDUzMSw4Ni4wNjQwOTQ1NDM0NTcwM0w2NjQuMjcwOTQ1MjMxMTE5OCw4NS45ODA3NjEyMTAxMjM3QzY3MC40MjU4OTMxNDc3ODY1LDg1Ljg5NzQyNzg3Njc5MDM2LDY4Mi43MzU3ODg5ODExMTk4LDg1LjczMDc2MTIxMDEyMzcsNjk1LjEyOTAxODE0Nzc4NjUsODUuNjQ3NDI3ODc2NzkwMzZDNzA3LjUyMjI0NzMxNDQ1MzEsODUuNTY0MDk0NTQzNDU3MDMsNzE5Ljk5ODgwOTgxNDQ1MzEsODUuNTY0MDk0NTQzNDU3MDMsNzI2LjIzNzA5MTA2NDQ1MzEsODUuNTY0MDk0NTQzNDU3MDNMNzMyLjQ3NTM3MjMxNDQ1MzEsODUuNTY0MDk0NTQzNDU3MDMiPjwvcGF0aD48cGF0aCBtYXJrZXItZW5kPSJ1cmwoI2Zsb3djaGFydC1wb2ludEVuZCkiIHN0eWxlPSJmaWxsOm5vbmU7IiBjbGFzcz0iZWRnZS10aGlja25lc3Mtbm9ybWFsIGVkZ2UtcGF0dGVybi1zb2xpZCBmbG93Y2hhcnQtbGluayBMUy1jb24xIExFLXN0MSIgaWQ9IkwtY29uMS1zdDEtMCIgZD0iTTUyMS41NDI1NTk5MjA5NTQ1LDEwNC42MTg4NDYyMzY4NzI1Nkw1MTQuMjAwMTAxMzA1Mzg1NCwxMDYuODE4MDU0Mjg3OTY5OTdDNTA2Ljg1NzY0MjY4OTgxNjAzLDEwOS4wMTcyNjIzMzkwNjczOSw0OTIuMTcyNzI1NDU4Njc3NiwxMTMuNDE1Njc4NDQxMjYyMjIsNDcxLjI1ODY1MjI1OTc3NTAzLDExNS42MTQ4ODY0OTIzNTk2MkM0NTAuMzQ0NTc5MDYwODcyNCwxMTcuODE0MDk0NTQzNDU3MDMsNDIzLjIwMTM0OTg5NDIwNTc1LDExNy44MTQwOTQ1NDM0NTcwMywzOTYuMDU4MTIwNzI3NTM5MDYsMTE3LjgxNDA5NDU0MzQ1NzAzQzM2OC45MTQ4OTE1NjA4NzI0LDExNy44MTQwOTQ1NDM0NTcwMywzNDEuNzcxNjYyMzk0MjA1NzUsMTE3LjgxNDA5NDU0MzQ1NzAzLDMyMC4zMzk2NTMzNTAyNzgwNywxMTUuNTIyNDI3ODc2NzkwMzZDMjk4LjkwNzY0NDMwNjM1MDQ1LDExMy4yMzA3NjEyMTAxMjM3LDI4My4xODY4NTUzODUxNjE4LDEwOC42NDc0Mjc4NzY3OTAzNiwyNzUuMzI2NDYwOTI0NTY3NDcsMTA2LjM1NTc2MTIxMDEyMzdMMjY3LjQ2NjA2NjQ2Mzk3MzE2LDEwNC4wNjQwOTQ1NDM0NTcwMyI+PC9wYXRoPjxwYXRoIG1hcmtlci1lbmQ9InVybCgjZmxvd2NoYXJ0LXBvaW50RW5kKSIgc3R5bGU9ImZpbGw6bm9uZTsiIGNsYXNzPSJlZGdlLXRoaWNrbmVzcy1ub3JtYWwgZWRnZS1wYXR0ZXJuLXNvbGlkIGZsb3djaGFydC1saW5rIExTLXN0MyBMRS1zdDQiIGlkPSJMLXN0My1zdDQtMCIgZD0iTTkxMi45NzUzNzIzMTQ0NTMxLDg1LjU2NDA5NDU0MzQ1NzAzTDkxNy4xNDIwMzg5ODExMTk4LDg1LjU2NDA5NDU0MzQ1NzAzQzkyMS4zMDg3MDU2NDc3ODY1LDg1LjU2NDA5NDU0MzQ1NzAzLDkyOS42NDIwMzg5ODExMTk4LDg1LjU2NDA5NDU0MzQ1NzAzLDkzNy45NzUzNzIzMTQ0NTMxLDg1LjU2NDA5NDU0MzQ1NzAzQzk0Ni4zMDg3MDU2NDc3ODY1LDg1LjU2NDA5NDU0MzQ1NzAzLDk1NC42NDIwMzg5ODExMTk4LDg1LjU2NDA5NDU0MzQ1NzAzLDk1OC44MDg3MDU2NDc3ODY1LDg1LjU2NDA5NDU0MzQ1NzAzTDk2Mi45NzUzNzIzMTQ0NTMxLDg1LjU2NDA5NDU0MzQ1NzAzIj48L3BhdGg+PHBhdGggbWFya2VyLWVuZD0idXJsKCNmbG93Y2hhcnQtcG9pbnRFbmQpIiBzdHlsZT0iZmlsbDpub25lOyIgY2xhc3M9ImVkZ2UtdGhpY2tuZXNzLW5vcm1hbCBlZGdlLXBhdHRlcm4tc29saWQgZmxvd2NoYXJ0LWxpbmsgTFMtc3Q0IExFLXN0b3AiIGlkPSJMLXN0NC1zdG9wLTAiIGQ9Ik0xMDcwLjI4Nzg3MjMxNDQ1MzEsODUuNTY0MDk0NTQzNDU3MDNMMTA3NC40NTQ1Mzg5ODExMTk5LDg1LjU2NDA5NDU0MzQ1NzAzQzEwNzguNjIxMjA1NjQ3Nzg2NCw4NS41NjQwOTQ1NDM0NTcwMywxMDg2Ljk1NDUzODk4MTExOTksODUuNTY0MDk0NTQzNDU3MDMsMTA5NS4yODc4NzIzMTQ0NTMxLDg1LjU2NDA5NDU0MzQ1NzAzQzExMDMuNjIxMjA1NjQ3Nzg2NCw4NS41NjQwOTQ1NDM0NTcwMywxMTExLjk1NDUzODk4MTExOTksODUuNTY0MDk0NTQzNDU3MDMsMTExNi4xMjEyMDU2NDc3ODY0LDg1LjU2NDA5NDU0MzQ1NzAzTDExMjAuMjg3ODcyMzE0NDUzMSw4NS41NjQwOTQ1NDM0NTcwMyI+PC9wYXRoPjwvZz48ZyBjbGFzcz0iZWRnZUxhYmVscyI+PGcgY2xhc3M9ImVkZ2VMYWJlbCI+PGcgdHJhbnNmb3JtPSJ0cmFuc2xhdGUoMCwgMCkiIGNsYXNzPSJsYWJlbCI+PHJlY3QgaGVpZ2h0PSIwIiB3aWR0aD0iMCIgcnk9IjAiIHJ4PSIwIj48L3JlY3Q+PHRleHQgc3R5bGU9IiI+PHRzcGFuIGNsYXNzPSJyb3ciIHg9IjAiIGR5PSIxZW0iIHhtbDpzcGFjZT0icHJlc2VydmUiPjwvdHNwYW4+PC90ZXh0PjwvZz48L2c+PGcgY2xhc3M9ImVkZ2VMYWJlbCI+PGcgdHJhbnNmb3JtPSJ0cmFuc2xhdGUoMCwgMCkiIGNsYXNzPSJsYWJlbCI+PHJlY3QgaGVpZ2h0PSIwIiB3aWR0aD0iMCIgcnk9IjAiIHJ4PSIwIj48L3JlY3Q+PHRleHQgc3R5bGU9IiI+PHRzcGFuIGNsYXNzPSJyb3ciIHg9IjAiIGR5PSIxZW0iIHhtbDpzcGFjZT0icHJlc2VydmUiPjwvdHNwYW4+PC90ZXh0PjwvZz48L2c+PGcgY2xhc3M9ImVkZ2VMYWJlbCI+PGcgdHJhbnNmb3JtPSJ0cmFuc2xhdGUoMCwgMCkiIGNsYXNzPSJsYWJlbCI+PHJlY3QgaGVpZ2h0PSIwIiB3aWR0aD0iMCIgcnk9IjAiIHJ4PSIwIj48L3JlY3Q+PHRleHQgc3R5bGU9IiI+PHRzcGFuIGNsYXNzPSJyb3ciIHg9IjAiIGR5PSIxZW0iIHhtbDpzcGFjZT0icHJlc2VydmUiPjwvdHNwYW4+PC90ZXh0PjwvZz48L2c+PGcgdHJhbnNmb3JtPSJ0cmFuc2xhdGUoNjk1LjA0NTY4NDgxNDQ1MzEsIDg1LjU2NDA5NDU0MzQ1NzAzKSIgY2xhc3M9ImVkZ2VMYWJlbCI+PGcgdHJhbnNmb3JtPSJ0cmFuc2xhdGUoLTEyLjQyOTY4NzUsIC0xMSkiIGNsYXNzPSJsYWJlbCI+PHJlY3QgaGVpZ2h0PSIyMS44Mzk4NDM3NSIgd2lkdGg9IjI0LjgzNTIzOTQxMDQwMDM5IiByeT0iMCIgcng9IjAiPjwvcmVjdD48dGV4dCBzdHlsZT0iIj48dHNwYW4gY2xhc3M9InJvdyIgeD0iMCIgZHk9IjFlbSIgeG1sOnNwYWNlPSJwcmVzZXJ2ZSI+eWVzPC90c3Bhbj48L3RleHQ+PC9nPjwvZz48ZyB0cmFuc2Zvcm09InRyYW5zbGF0ZSgzOTYuMDU4MTIwNzI3NTM5MDYsIDExNy44MTQwOTQ1NDM0NTcwMykiIGNsYXNzPSJlZGdlTGFiZWwiPjxnIHRyYW5zZm9ybT0idHJhbnNsYXRlKC05Ljc4OTA2MjUsIC0xMSkiIGNsYXNzPSJsYWJlbCI+PHJlY3QgaGVpZ2h0PSIyMS44Mzk4NDM3NSIgd2lkdGg9IjE5LjU4MzM1NDk0OTk1MTE3MiIgcnk9IjAiIHJ4PSIwIj48L3JlY3Q+PHRleHQgc3R5bGU9IiI+PHRzcGFuIGNsYXNzPSJyb3ciIHg9IjAiIGR5PSIxZW0iIHhtbDpzcGFjZT0icHJlc2VydmUiPm5vPC90c3Bhbj48L3RleHQ+PC9nPjwvZz48ZyBjbGFzcz0iZWRnZUxhYmVsIj48ZyB0cmFuc2Zvcm09InRyYW5zbGF0ZSgwLCAwKSIgY2xhc3M9ImxhYmVsIj48cmVjdCBoZWlnaHQ9IjAiIHdpZHRoPSIwIiByeT0iMCIgcng9IjAiPjwvcmVjdD48dGV4dCBzdHlsZT0iIj48dHNwYW4gY2xhc3M9InJvdyIgeD0iMCIgZHk9IjFlbSIgeG1sOnNwYWNlPSJwcmVzZXJ2ZSI+PC90c3Bhbj48L3RleHQ+PC9nPjwvZz48ZyBjbGFzcz0iZWRnZUxhYmVsIj48ZyB0cmFuc2Zvcm09InRyYW5zbGF0ZSgwLCAwKSIgY2xhc3M9ImxhYmVsIj48cmVjdCBoZWlnaHQ9IjAiIHdpZHRoPSIwIiByeT0iMCIgcng9IjAiPjwvcmVjdD48dGV4dCBzdHlsZT0iIj48dHNwYW4gY2xhc3M9InJvdyIgeD0iMCIgZHk9IjFlbSIgeG1sOnNwYWNlPSJwcmVzZXJ2ZSI+PC90c3Bhbj48L3RleHQ+PC9nPjwvZz48L2c+PGcgY2xhc3M9Im5vZGVzIj48ZyB0cmFuc2Zvcm09InRyYW5zbGF0ZSgzOC4xOTcwMjkxMTM3Njk1MywgODUuNTY0MDk0NTQzNDU3MDMpIiBpZD0iZmxvd2NoYXJ0LXN0YXJ0LTcwNSIgY2xhc3M9Im5vZGUgZGVmYXVsdCBzdGFydCI+PHJlY3QgaGVpZ2h0PSIzNyIgd2lkdGg9IjYwLjM5NDA1ODIyNzUzOTA2IiB5PSItMTguNSIgeD0iLTMwLjE5NzAyOTExMzc2OTUzIiByeT0iMTguNSIgcng9IjE4LjUiIHN0eWxlPSIiPjwvcmVjdD48ZyB0cmFuc2Zvcm09InRyYW5zbGF0ZSgtMTguMDcyMDI5MTEzNzY5NTMsIC0xMSkiIHN0eWxlPSIiIGNsYXNzPSJsYWJlbCI+PHRleHQgc3R5bGU9IiI+PHRzcGFuIGNsYXNzPSJyb3ciIHg9IjAiIGR5PSIxZW0iIHhtbDpzcGFjZT0icHJlc2VydmUiPlN0YXJ0PC90c3Bhbj48L3RleHQ+PC9nPjwvZz48ZyB0cmFuc2Zvcm09InRyYW5zbGF0ZSgxMTQ5LjQ1OTc0NzMxNDQ1MzEsIDg1LjU2NDA5NDU0MzQ1NzAzKSIgaWQ9ImZsb3djaGFydC1zdG9wLTcwNiIgY2xhc3M9Im5vZGUgZGVmYXVsdCBzdG9wIj48cmVjdCBoZWlnaHQ9IjM3IiB3aWR0aD0iNTguMzQzNzUiIHk9Ii0xOC41IiB4PSItMjkuMTcxODc1IiByeT0iMTguNSIgcng9IjE4LjUiIHN0eWxlPSIiPjwvcmVjdD48ZyB0cmFuc2Zvcm09InRyYW5zbGF0ZSgtMTcuMDQ2ODc1LCAtMTEpIiBzdHlsZT0iIiBjbGFzcz0ibGFiZWwiPjx0ZXh0IHN0eWxlPSIiPjx0c3BhbiBjbGFzcz0icm93IiB4PSIwIiBkeT0iMWVtIiB4bWw6c3BhY2U9InByZXNlcnZlIj5TdG9wPC90c3Bhbj48L3RleHQ+PC9nPjwvZz48ZyB0cmFuc2Zvcm09InRyYW5zbGF0ZSgyMDQuMDExMjQ1NzI3NTM5MDYsIDg1LjU2NDA5NDU0MzQ1NzAzKSIgaWQ9ImZsb3djaGFydC1zdDEtNzA3IiBjbGFzcz0ibm9kZSBkZWZhdWx0IGRlZmF1bHQiPjxyZWN0IGhlaWdodD0iMzciIHdpZHRoPSIxNzEuMjM0Mzc1IiB5PSItMTguNSIgeD0iLTg1LjYxNzE4NzUiIHJ5PSI1IiByeD0iNSIgc3R5bGU9IiIgY2xhc3M9ImJhc2ljIGxhYmVsLWNvbnRhaW5lciI+PC9yZWN0PjxnIHRyYW5zZm9ybT0idHJhbnNsYXRlKC03OC4xMTcxODc1LCAtMTEpIiBzdHlsZT0iIiBjbGFzcz0ibGFiZWwiPjx0ZXh0IHN0eWxlPSIiPjx0c3BhbiBjbGFzcz0icm93IiB4PSIwIiBkeT0iMWVtIiB4bWw6c3BhY2U9InByZXNlcnZlIj5JbnB1dCBlbXBsb3llZSBkYXRhPC90c3Bhbj48L3RleHQ+PC9nPjwvZz48ZyB0cmFuc2Zvcm09InRyYW5zbGF0ZSgzOTYuMDU4MTIwNzI3NTM5MDYsIDUzLjMxNDA5NDU0MzQ1NzAzKSIgaWQ9ImZsb3djaGFydC1zdDItNzA4IiBjbGFzcz0ibm9kZSBkZWZhdWx0IGRlZmF1bHQiPjxyZWN0IGhlaWdodD0iMzciIHdpZHRoPSIxMTIuODU5Mzc1IiB5PSItMTguNSIgeD0iLTU2LjQyOTY4NzUiIHJ5PSI1IiByeD0iNSIgc3R5bGU9IiIgY2xhc3M9ImJhc2ljIGxhYmVsLWNvbnRhaW5lciI+PC9yZWN0PjxnIHRyYW5zZm9ybT0idHJhbnNsYXRlKC00OC45Mjk2ODc1LCAtMTEpIiBzdHlsZT0iIiBjbGFzcz0ibGFiZWwiPjx0ZXh0IHN0eWxlPSIiPjx0c3BhbiBjbGFzcz0icm93IiB4PSIwIiBkeT0iMWVtIiB4bWw6c3BhY2U9InByZXNlcnZlIj5WYWxpZGF0ZSBkYXRhPC90c3Bhbj48L3RleHQ+PC9nPjwvZz48ZyB0cmFuc2Zvcm09InRyYW5zbGF0ZSg4MjIuNzI1MzcyMzE0NDUzMSwgODUuNTY0MDk0NTQzNDU3MDMpIiBpZD0iZmxvd2NoYXJ0LXN0My03MDkiIGNsYXNzPSJub2RlIGRlZmF1bHQgZGVmYXVsdCI+PHJlY3QgaGVpZ2h0PSIzNyIgd2lkdGg9IjE4MC41IiB5PSItMTguNSIgeD0iLTkwLjI1IiByeT0iNSIgcng9IjUiIHN0eWxlPSIiIGNsYXNzPSJiYXNpYyBsYWJlbC1jb250YWluZXIiPjwvcmVjdD48ZyB0cmFuc2Zvcm09InRyYW5zbGF0ZSgtODIuNzUsIC0xMSkiIHN0eWxlPSIiIGNsYXNzPSJsYWJlbCI+PHRleHQgc3R5bGU9IiI+PHRzcGFuIGNsYXNzPSJyb3ciIHg9IjAiIGR5PSIxZW0iIHhtbDpzcGFjZT0icHJlc2VydmUiPlNhdmUgZGF0YSB0byBkYXRhYmFzZTwvdHNwYW4+PC90ZXh0PjwvZz48L2c+PGcgdHJhbnNmb3JtPSJ0cmFuc2xhdGUoMTAxNi42MzE2MjIzMTQ0NTMxLCA4NS41NjQwOTQ1NDM0NTcwMykiIGlkPSJmbG93Y2hhcnQtc3Q0LTcxMCIgY2xhc3M9Im5vZGUgZGVmYXVsdCBkZWZhdWx0Ij48cmVjdCBoZWlnaHQ9IjM3IiB3aWR0aD0iMTA3LjMxMjUiIHk9Ii0xOC41IiB4PSItNTMuNjU2MjUiIHJ5PSI1IiByeD0iNSIgc3R5bGU9IiIgY2xhc3M9ImJhc2ljIGxhYmVsLWNvbnRhaW5lciI+PC9yZWN0PjxnIHRyYW5zZm9ybT0idHJhbnNsYXRlKC00Ni4xNTYyNSwgLTExKSIgc3R5bGU9IiIgY2xhc3M9ImxhYmVsIj48dGV4dCBzdHlsZT0iIj48dHNwYW4gY2xhc3M9InJvdyIgeD0iMCIgZHk9IjFlbSIgeG1sOnNwYWNlPSJwcmVzZXJ2ZSI+RGlzcGxheSBkYXRhPC90c3Bhbj48L3RleHQ+PC9nPjwvZz48ZyB0cmFuc2Zvcm09InRyYW5zbGF0ZSg1ODAuMDUxOTAyNzcwOTk2MSwgODUuNTY0MDk0NTQzNDU3MDMpIiBpZD0iZmxvd2NoYXJ0LWNvbjEtNzExIiBjbGFzcz0ibm9kZSBkZWZhdWx0IGNvbmRpdGlvbiI+PHBvbHlnb24gc3R5bGU9IiIgdHJhbnNmb3JtPSJ0cmFuc2xhdGUoLTc3LjU2NDA5NDU0MzQ1NzAzLDc3LjU2NDA5NDU0MzQ1NzAzKSIgY2xhc3M9ImxhYmVsLWNvbnRhaW5lciIgcG9pbnRzPSI3Ny41NjQwOTQ1NDM0NTcwMywwIDE1NS4xMjgxODkwODY5MTQwNiwtNzcuNTY0MDk0NTQzNDU3MDMgNzcuNTY0MDk0NTQzNDU3MDMsLTE1NS4xMjgxODkwODY5MTQwNiAwLC03Ny41NjQwOTQ1NDM0NTcwMyI+PC9wb2x5Z29uPjxnIHRyYW5zZm9ybT0idHJhbnNsYXRlKC01MS41NjQwOTQ1NDM0NTcwMywgLTExKSIgc3R5bGU9IiIgY2xhc3M9ImxhYmVsIj48dGV4dCBzdHlsZT0iIj48dHNwYW4gY2xhc3M9InJvdyIgeD0iMCIgZHk9IjFlbSIgeG1sOnNwYWNlPSJwcmVzZXJ2ZSI+SXMgaW5wdXQgdmFsaWQ/PC90c3Bhbj48L3RleHQ+PC9nPjwvZz48L2c+PC9nPjwvZz48L3N2Zz4=;" parent="1" vertex="1">
                        <mxGeometry x="-950" y="110" width="2550" height="430" as="geometry"/>
                    </mxCell>
                </UserObject>
                <mxCell id="4" value="Inserting Employee to Database:" style="text;html=1;align=center;verticalAlign=middle;resizable=0;points=[];autosize=1;strokeColor=none;fillColor=none;fontStyle=1;fontSize=40;" parent="1" vertex="1">
                    <mxGeometry x="-950" y="100" width="670" height="60" as="geometry"/>
                </mxCell>
                <UserObject label="" mermaidData="{&#10;  &quot;data&quot;: &quot;flowchart LR;\n\n%% Styling\n  classDef condition fill:#FFFF70\n  classDef start fill:#B2FF70\n  classDef stop fill:#FF5959\n\n%% Objects\n  start([Start]):::start\n  stop([Stop]):::stop\n\n  st1(Connect to DB)\n  st2(Query DB)\n  st3(Process Data)\n  st4(Display Data)\n\n%%  con1{Is input valid?}:::condition\n\n%% Flow\n\n  start --&gt; st1\n  st1 --&gt; st2\n  st2 --&gt; st3\n  st3 --&gt; st4\n  st4 --&gt; stop&quot;,&#10;  &quot;config&quot;: {&#10;    &quot;theme&quot;: &quot;neutral&quot;,&#10;    &quot;arrowMarkerAbsolute&quot;: false,&#10;    &quot;flowchart&quot;: {&#10;      &quot;htmlLabels&quot;: false&#10;    },&#10;    &quot;sequence&quot;: {&#10;      &quot;diagramMarginX&quot;: 50,&#10;      &quot;diagramMarginY&quot;: 10,&#10;      &quot;actorMargin&quot;: 50,&#10;      &quot;width&quot;: 150,&#10;      &quot;height&quot;: 65,&#10;      &quot;boxMargin&quot;: 10,&#10;      &quot;boxTextMargin&quot;: 5,&#10;      &quot;noteMargin&quot;: 10,&#10;      &quot;messageMargin&quot;: 35,&#10;      &quot;mirrorActors&quot;: true,&#10;      &quot;bottomMarginAdj&quot;: 1,&#10;      &quot;useMaxWidth&quot;: true,&#10;      &quot;rightAngles&quot;: false,&#10;      &quot;showSequenceNumbers&quot;: false&#10;    },&#10;    &quot;gantt&quot;: {&#10;      &quot;titleTopMargin&quot;: 25,&#10;      &quot;barHeight&quot;: 20,&#10;      &quot;barGap&quot;: 4,&#10;      &quot;topPadding&quot;: 50,&#10;      &quot;leftPadding&quot;: 75,&#10;      &quot;gridLineStartPadding&quot;: 35,&#10;      &quot;fontSize&quot;: 11,&#10;      &quot;fontFamily&quot;: &quot;\&quot;Open-Sans\&quot;, \&quot;sans-serif\&quot;&quot;,&#10;      &quot;numberSectionStyles&quot;: 4,&#10;      &quot;axisFormat&quot;: &quot;%Y-%m-%d&quot;&#10;    },&#10;    &quot;securityLevel&quot;: &quot;strict&quot;,&#10;    &quot;startOnLoad&quot;: false,&#10;    &quot;themeVariables&quot;: {&#10;      &quot;primaryColor&quot;: &quot;#eee&quot;,&#10;      &quot;contrast&quot;: &quot;#707070&quot;,&#10;      &quot;secondaryColor&quot;: &quot;hsl(0, 0%, 98.9215686275%)&quot;,&#10;      &quot;background&quot;: &quot;#ffffff&quot;,&#10;      &quot;tertiaryColor&quot;: &quot;hsl(-160, 0%, 93.3333333333%)&quot;,&#10;      &quot;primaryBorderColor&quot;: &quot;hsl(0, 0%, 83.3333333333%)&quot;,&#10;      &quot;secondaryBorderColor&quot;: &quot;hsl(0, 0%, 88.9215686275%)&quot;,&#10;      &quot;tertiaryBorderColor&quot;: &quot;hsl(-160, 0%, 83.3333333333%)&quot;,&#10;      &quot;primaryTextColor&quot;: &quot;#111111&quot;,&#10;      &quot;secondaryTextColor&quot;: &quot;rgb(2.7499999999, 2.7499999999, 2.7499999999)&quot;,&#10;      &quot;tertiaryTextColor&quot;: &quot;rgb(17.0000000001, 17.0000000001, 17.0000000001)&quot;,&#10;      &quot;lineColor&quot;: &quot;#666&quot;,&#10;      &quot;textColor&quot;: &quot;#000000&quot;,&#10;      &quot;mainBkg&quot;: &quot;#eee&quot;,&#10;      &quot;secondBkg&quot;: &quot;hsl(0, 0%, 98.9215686275%)&quot;,&#10;      &quot;border1&quot;: &quot;#999&quot;,&#10;      &quot;border2&quot;: &quot;#707070&quot;,&#10;      &quot;note&quot;: &quot;#ffa&quot;,&#10;      &quot;text&quot;: &quot;#333&quot;,&#10;      &quot;critical&quot;: &quot;#d42&quot;,&#10;      &quot;done&quot;: &quot;#bbb&quot;,&#10;      &quot;arrowheadColor&quot;: &quot;#333333&quot;,&#10;      &quot;fontFamily&quot;: &quot;\&quot;trebuchet ms\&quot;, verdana, arial, sans-serif&quot;,&#10;      &quot;fontSize&quot;: &quot;16px&quot;,&#10;      &quot;nodeBkg&quot;: &quot;#eee&quot;,&#10;      &quot;nodeBorder&quot;: &quot;#999&quot;,&#10;      &quot;clusterBkg&quot;: &quot;hsl(0, 0%, 98.9215686275%)&quot;,&#10;      &quot;clusterBorder&quot;: &quot;#707070&quot;,&#10;      &quot;defaultLinkColor&quot;: &quot;#666&quot;,&#10;      &quot;titleColor&quot;: &quot;#333&quot;,&#10;      &quot;edgeLabelBackground&quot;: &quot;white&quot;,&#10;      &quot;actorBorder&quot;: &quot;hsl(0, 0%, 83%)&quot;,&#10;      &quot;actorBkg&quot;: &quot;#eee&quot;,&#10;      &quot;actorTextColor&quot;: &quot;#333&quot;,&#10;      &quot;actorLineColor&quot;: &quot;#666&quot;,&#10;      &quot;signalColor&quot;: &quot;#333&quot;,&#10;      &quot;signalTextColor&quot;: &quot;#333&quot;,&#10;      &quot;labelBoxBkgColor&quot;: &quot;#eee&quot;,&#10;      &quot;labelBoxBorderColor&quot;: &quot;hsl(0, 0%, 83%)&quot;,&#10;      &quot;labelTextColor&quot;: &quot;#333&quot;,&#10;      &quot;loopTextColor&quot;: &quot;#333&quot;,&#10;      &quot;noteBorderColor&quot;: &quot;#999&quot;,&#10;      &quot;noteBkgColor&quot;: &quot;#666&quot;,&#10;      &quot;noteTextColor&quot;: &quot;#fff&quot;,&#10;      &quot;activationBorderColor&quot;: &quot;#666&quot;,&#10;      &quot;activationBkgColor&quot;: &quot;#f4f4f4&quot;,&#10;      &quot;sequenceNumberColor&quot;: &quot;white&quot;,&#10;      &quot;sectionBkgColor&quot;: &quot;hsl(0, 0%, 73.9215686275%)&quot;,&#10;      &quot;altSectionBkgColor&quot;: &quot;white&quot;,&#10;      &quot;sectionBkgColor2&quot;: &quot;hsl(0, 0%, 73.9215686275%)&quot;,&#10;      &quot;excludeBkgColor&quot;: &quot;#eeeeee&quot;,&#10;      &quot;taskBorderColor&quot;: &quot;hsl(0, 0%, 33.9215686275%)&quot;,&#10;      &quot;taskBkgColor&quot;: &quot;#707070&quot;,&#10;      &quot;taskTextLightColor&quot;: &quot;white&quot;,&#10;      &quot;taskTextColor&quot;: &quot;white&quot;,&#10;      &quot;taskTextDarkColor&quot;: &quot;#333&quot;,&#10;      &quot;taskTextOutsideColor&quot;: &quot;#333&quot;,&#10;      &quot;taskTextClickableColor&quot;: &quot;#003163&quot;,&#10;      &quot;activeTaskBorderColor&quot;: &quot;hsl(0, 0%, 33.9215686275%)&quot;,&#10;      &quot;activeTaskBkgColor&quot;: &quot;#eee&quot;,&#10;      &quot;gridColor&quot;: &quot;hsl(0, 0%, 90%)&quot;,&#10;      &quot;doneTaskBkgColor&quot;: &quot;#bbb&quot;,&#10;      &quot;doneTaskBorderColor&quot;: &quot;#666&quot;,&#10;      &quot;critBkgColor&quot;: &quot;#d42&quot;,&#10;      &quot;critBorderColor&quot;: &quot;hsl(10.9090909091, 73.3333333333%, 40%)&quot;,&#10;      &quot;todayLineColor&quot;: &quot;#d42&quot;,&#10;      &quot;personBorder&quot;: &quot;calculated&quot;,&#10;      &quot;personBkg&quot;: &quot;calculated&quot;,&#10;      &quot;labelColor&quot;: &quot;black&quot;,&#10;      &quot;errorBkgColor&quot;: &quot;#552222&quot;,&#10;      &quot;errorTextColor&quot;: &quot;#552222&quot;,&#10;      &quot;transitionColor&quot;: &quot;#000&quot;,&#10;      &quot;transitionLabelColor&quot;: &quot;#000000&quot;,&#10;      &quot;stateLabelColor&quot;: &quot;#111111&quot;,&#10;      &quot;stateBkg&quot;: &quot;#eee&quot;,&#10;      &quot;labelBackgroundColor&quot;: &quot;#eee&quot;,&#10;      &quot;compositeBackground&quot;: &quot;#ffffff&quot;,&#10;      &quot;altBackground&quot;: &quot;#f4f4f4&quot;,&#10;      &quot;compositeTitleBackground&quot;: &quot;#eee&quot;,&#10;      &quot;stateBorder&quot;: &quot;#000&quot;,&#10;      &quot;innerEndBackground&quot;: &quot;hsl(0, 0%, 83.3333333333%)&quot;,&#10;      &quot;specialStateColor&quot;: &quot;#222&quot;,&#10;      &quot;classText&quot;: &quot;#111111&quot;,&#10;      &quot;fillType0&quot;: &quot;#eee&quot;,&#10;      &quot;fillType1&quot;: &quot;hsl(0, 0%, 98.9215686275%)&quot;,&#10;      &quot;fillType2&quot;: &quot;hsl(64, 0%, 93.3333333333%)&quot;,&#10;      &quot;fillType3&quot;: &quot;hsl(64, 0%, 98.9215686275%)&quot;,&#10;      &quot;fillType4&quot;: &quot;hsl(-64, 0%, 93.3333333333%)&quot;,&#10;      &quot;fillType5&quot;: &quot;hsl(-64, 0%, 98.9215686275%)&quot;,&#10;      &quot;fillType6&quot;: &quot;hsl(128, 0%, 93.3333333333%)&quot;,&#10;      &quot;fillType7&quot;: &quot;hsl(128, 0%, 98.9215686275%)&quot;,&#10;      &quot;pie1&quot;: &quot;#F4F4F4&quot;,&#10;      &quot;pie2&quot;: &quot;#555&quot;,&#10;      &quot;pie3&quot;: &quot;#BBB&quot;,&#10;      &quot;pie4&quot;: &quot;#777&quot;,&#10;      &quot;pie5&quot;: &quot;#999&quot;,&#10;      &quot;pie6&quot;: &quot;#DDD&quot;,&#10;      &quot;pie7&quot;: &quot;#FFF&quot;,&#10;      &quot;pie8&quot;: &quot;#DDD&quot;,&#10;      &quot;pie9&quot;: &quot;#BBB&quot;,&#10;      &quot;pie10&quot;: &quot;#999&quot;,&#10;      &quot;pie11&quot;: &quot;#777&quot;,&#10;      &quot;pie12&quot;: &quot;#555&quot;,&#10;      &quot;pieTitleTextSize&quot;: &quot;25px&quot;,&#10;      &quot;pieTitleTextColor&quot;: &quot;#333&quot;,&#10;      &quot;pieSectionTextSize&quot;: &quot;17px&quot;,&#10;      &quot;pieSectionTextColor&quot;: &quot;#000000&quot;,&#10;      &quot;pieLegendTextSize&quot;: &quot;17px&quot;,&#10;      &quot;pieLegendTextColor&quot;: &quot;#333&quot;,&#10;      &quot;pieStrokeColor&quot;: &quot;black&quot;,&#10;      &quot;pieStrokeWidth&quot;: &quot;2px&quot;,&#10;      &quot;pieOpacity&quot;: &quot;0.7&quot;,&#10;      &quot;requirementBackground&quot;: &quot;#eee&quot;,&#10;      &quot;requirementBorderColor&quot;: &quot;hsl(0, 0%, 83.3333333333%)&quot;,&#10;      &quot;requirementBorderSize&quot;: &quot;hsl(0, 0%, 83.3333333333%)&quot;,&#10;      &quot;requirementTextColor&quot;: &quot;#111111&quot;,&#10;      &quot;relationColor&quot;: &quot;#666&quot;,&#10;      &quot;relationLabelBackground&quot;: &quot;white&quot;,&#10;      &quot;relationLabelColor&quot;: &quot;#333&quot;,&#10;      &quot;git0&quot;: &quot;hsl(0, 0%, 70.6862745098%)&quot;,&#10;      &quot;git1&quot;: &quot;#555&quot;,&#10;      &quot;git2&quot;: &quot;#BBB&quot;,&#10;      &quot;git3&quot;: &quot;#777&quot;,&#10;      &quot;git4&quot;: &quot;#999&quot;,&#10;      &quot;git5&quot;: &quot;#DDD&quot;,&#10;      &quot;git6&quot;: &quot;#FFF&quot;,&#10;      &quot;git7&quot;: &quot;#DDD&quot;,&#10;      &quot;gitInv0&quot;: &quot;rgb(74.75, 74.75, 74.75)&quot;,&#10;      &quot;gitInv1&quot;: &quot;#aaaaaa&quot;,&#10;      &quot;gitInv2&quot;: &quot;#444444&quot;,&#10;      &quot;gitInv3&quot;: &quot;#888888&quot;,&#10;      &quot;gitInv4&quot;: &quot;#666666&quot;,&#10;      &quot;gitInv5&quot;: &quot;#222222&quot;,&#10;      &quot;gitInv6&quot;: &quot;#000000&quot;,&#10;      &quot;gitInv7&quot;: &quot;#222222&quot;,&#10;      &quot;branchLabelColor&quot;: &quot;#333&quot;,&#10;      &quot;gitBranchLabel0&quot;: &quot;#333&quot;,&#10;      &quot;gitBranchLabel1&quot;: &quot;white&quot;,&#10;      &quot;gitBranchLabel2&quot;: &quot;#333&quot;,&#10;      &quot;gitBranchLabel3&quot;: &quot;white&quot;,&#10;      &quot;gitBranchLabel4&quot;: &quot;#333&quot;,&#10;      &quot;gitBranchLabel5&quot;: &quot;#333&quot;,&#10;      &quot;gitBranchLabel6&quot;: &quot;#333&quot;,&#10;      &quot;gitBranchLabel7&quot;: &quot;#333&quot;,&#10;      &quot;tagLabelColor&quot;: &quot;#111111&quot;,&#10;      &quot;tagLabelBackground&quot;: &quot;#eee&quot;,&#10;      &quot;tagLabelBorder&quot;: &quot;hsl(0, 0%, 83.3333333333%)&quot;,&#10;      &quot;tagLabelFontSize&quot;: &quot;10px&quot;,&#10;      &quot;commitLabelColor&quot;: &quot;rgb(2.7499999999, 2.7499999999, 2.7499999999)&quot;,&#10;      &quot;commitLabelBackground&quot;: &quot;hsl(0, 0%, 98.9215686275%)&quot;,&#10;      &quot;commitLabelFontSize&quot;: &quot;10px&quot;&#10;    }&#10;  }&#10;}" id="5">
                    <mxCell style="shape=image;noLabel=1;verticalAlign=top;imageAspect=1;image=data:image/svg+xml,PHN2ZyB2aWV3Qm94PSIwIDAgODE2LjQ3MjE4MzIyNzUzOTEgNTMiIHN0eWxlPSJtYXgtd2lkdGg6IDgxNi40NzIxODMyMjc1MzkxcHg7IiBoZWlnaHQ9IjUzIiBhcmlhLWxhYmVsbGVkYnk9ImNoYXJ0LXRpdGxlLWdlTWVybWFpZE91dHB1dC0xNzM0MzY1MjY1MTAwIGNoYXJ0LWRlc2MtZ2VNZXJtYWlkT3V0cHV0LTE3MzQzNjUyNjUxMDAiIHJvbGU9ImltZyIgeG1sbnM6eGxpbms9Imh0dHA6Ly93d3cudzMub3JnLzE5OTkveGxpbmsiIHhtbG5zPSJodHRwOi8vd3d3LnczLm9yZy8yMDAwL3N2ZyIgd2lkdGg9IjEwMCUiIGlkPSJnZU1lcm1haWRPdXRwdXQtMTczNDM2NTI2NTEwMCI+PHRpdGxlIGlkPSJjaGFydC10aXRsZS1nZU1lcm1haWRPdXRwdXQtMTczNDM2NTI2NTEwMCI+PC90aXRsZT48ZGVzYyBpZD0iY2hhcnQtZGVzYy1nZU1lcm1haWRPdXRwdXQtMTczNDM2NTI2NTEwMCI+PC9kZXNjPjxzdHlsZT4jZ2VNZXJtYWlkT3V0cHV0LTE3MzQzNjUyNjUxMDAge2ZvbnQtZmFtaWx5OiJ0cmVidWNoZXQgbXMiLHZlcmRhbmEsYXJpYWwsc2Fucy1zZXJpZjtmb250LXNpemU6MTZweDtmaWxsOiMwMDAwMDA7fSNnZU1lcm1haWRPdXRwdXQtMTczNDM2NTI2NTEwMCAuZXJyb3ItaWNvbntmaWxsOiM1NTIyMjI7fSNnZU1lcm1haWRPdXRwdXQtMTczNDM2NTI2NTEwMCAuZXJyb3ItdGV4dHtmaWxsOiM1NTIyMjI7c3Ryb2tlOiM1NTIyMjI7fSNnZU1lcm1haWRPdXRwdXQtMTczNDM2NTI2NTEwMCAuZWRnZS10aGlja25lc3Mtbm9ybWFse3N0cm9rZS13aWR0aDoycHg7fSNnZU1lcm1haWRPdXRwdXQtMTczNDM2NTI2NTEwMCAuZWRnZS10aGlja25lc3MtdGhpY2t7c3Ryb2tlLXdpZHRoOjMuNXB4O30jZ2VNZXJtYWlkT3V0cHV0LTE3MzQzNjUyNjUxMDAgLmVkZ2UtcGF0dGVybi1zb2xpZHtzdHJva2UtZGFzaGFycmF5OjA7fSNnZU1lcm1haWRPdXRwdXQtMTczNDM2NTI2NTEwMCAuZWRnZS1wYXR0ZXJuLWRhc2hlZHtzdHJva2UtZGFzaGFycmF5OjM7fSNnZU1lcm1haWRPdXRwdXQtMTczNDM2NTI2NTEwMCAuZWRnZS1wYXR0ZXJuLWRvdHRlZHtzdHJva2UtZGFzaGFycmF5OjI7fSNnZU1lcm1haWRPdXRwdXQtMTczNDM2NTI2NTEwMCAubWFya2Vye2ZpbGw6IzY2NjtzdHJva2U6IzY2Njt9I2dlTWVybWFpZE91dHB1dC0xNzM0MzY1MjY1MTAwIC5tYXJrZXIuY3Jvc3N7c3Ryb2tlOiM2NjY7fSNnZU1lcm1haWRPdXRwdXQtMTczNDM2NTI2NTEwMCBzdmd7Zm9udC1mYW1pbHk6InRyZWJ1Y2hldCBtcyIsdmVyZGFuYSxhcmlhbCxzYW5zLXNlcmlmO2ZvbnQtc2l6ZToxNnB4O30jZ2VNZXJtYWlkT3V0cHV0LTE3MzQzNjUyNjUxMDAgLmxhYmVse2ZvbnQtZmFtaWx5OiJ0cmVidWNoZXQgbXMiLHZlcmRhbmEsYXJpYWwsc2Fucy1zZXJpZjtjb2xvcjojMDAwMDAwO30jZ2VNZXJtYWlkT3V0cHV0LTE3MzQzNjUyNjUxMDAgLmNsdXN0ZXItbGFiZWwgdGV4dHtmaWxsOiMzMzM7fSNnZU1lcm1haWRPdXRwdXQtMTczNDM2NTI2NTEwMCAuY2x1c3Rlci1sYWJlbCBzcGFue2NvbG9yOiMzMzM7fSNnZU1lcm1haWRPdXRwdXQtMTczNDM2NTI2NTEwMCAubGFiZWwgdGV4dCwjZ2VNZXJtYWlkT3V0cHV0LTE3MzQzNjUyNjUxMDAgc3BhbntmaWxsOiMwMDAwMDA7Y29sb3I6IzAwMDAwMDt9I2dlTWVybWFpZE91dHB1dC0xNzM0MzY1MjY1MTAwIC5ub2RlIHJlY3QsI2dlTWVybWFpZE91dHB1dC0xNzM0MzY1MjY1MTAwIC5ub2RlIGNpcmNsZSwjZ2VNZXJtYWlkT3V0cHV0LTE3MzQzNjUyNjUxMDAgLm5vZGUgZWxsaXBzZSwjZ2VNZXJtYWlkT3V0cHV0LTE3MzQzNjUyNjUxMDAgLm5vZGUgcG9seWdvbiwjZ2VNZXJtYWlkT3V0cHV0LTE3MzQzNjUyNjUxMDAgLm5vZGUgcGF0aHtmaWxsOiNlZWU7c3Ryb2tlOiM5OTk7c3Ryb2tlLXdpZHRoOjFweDt9I2dlTWVybWFpZE91dHB1dC0xNzM0MzY1MjY1MTAwIC5ub2RlIC5sYWJlbHt0ZXh0LWFsaWduOmNlbnRlcjt9I2dlTWVybWFpZE91dHB1dC0xNzM0MzY1MjY1MTAwIC5ub2RlLmNsaWNrYWJsZXtjdXJzb3I6cG9pbnRlcjt9I2dlTWVybWFpZE91dHB1dC0xNzM0MzY1MjY1MTAwIC5hcnJvd2hlYWRQYXRoe2ZpbGw6IzMzMzMzMzt9I2dlTWVybWFpZE91dHB1dC0xNzM0MzY1MjY1MTAwIC5lZGdlUGF0aCAucGF0aHtzdHJva2U6IzY2NjtzdHJva2Utd2lkdGg6Mi4wcHg7fSNnZU1lcm1haWRPdXRwdXQtMTczNDM2NTI2NTEwMCAuZmxvd2NoYXJ0LWxpbmt7c3Ryb2tlOiM2NjY7ZmlsbDpub25lO30jZ2VNZXJtYWlkT3V0cHV0LTE3MzQzNjUyNjUxMDAgLmVkZ2VMYWJlbHtiYWNrZ3JvdW5kLWNvbG9yOndoaXRlO3RleHQtYWxpZ246Y2VudGVyO30jZ2VNZXJtYWlkT3V0cHV0LTE3MzQzNjUyNjUxMDAgLmVkZ2VMYWJlbCByZWN0e29wYWNpdHk6MC41O2JhY2tncm91bmQtY29sb3I6d2hpdGU7ZmlsbDp3aGl0ZTt9I2dlTWVybWFpZE91dHB1dC0xNzM0MzY1MjY1MTAwIC5jbHVzdGVyIHJlY3R7ZmlsbDpoc2woMCwgMCUsIDk4LjkyMTU2ODYyNzUlKTtzdHJva2U6IzcwNzA3MDtzdHJva2Utd2lkdGg6MXB4O30jZ2VNZXJtYWlkT3V0cHV0LTE3MzQzNjUyNjUxMDAgLmNsdXN0ZXIgdGV4dHtmaWxsOiMzMzM7fSNnZU1lcm1haWRPdXRwdXQtMTczNDM2NTI2NTEwMCAuY2x1c3RlciBzcGFue2NvbG9yOiMzMzM7fSNnZU1lcm1haWRPdXRwdXQtMTczNDM2NTI2NTEwMCBkaXYubWVybWFpZFRvb2x0aXB7cG9zaXRpb246YWJzb2x1dGU7dGV4dC1hbGlnbjpjZW50ZXI7bWF4LXdpZHRoOjIwMHB4O3BhZGRpbmc6MnB4O2ZvbnQtZmFtaWx5OiJ0cmVidWNoZXQgbXMiLHZlcmRhbmEsYXJpYWwsc2Fucy1zZXJpZjtmb250LXNpemU6MTJweDtiYWNrZ3JvdW5kOmhzbCgtMTYwLCAwJSwgOTMuMzMzMzMzMzMzMyUpO2JvcmRlcjoxcHggc29saWQgIzcwNzA3MDtib3JkZXItcmFkaXVzOjJweDtwb2ludGVyLWV2ZW50czpub25lO3otaW5kZXg6MTAwO30jZ2VNZXJtYWlkT3V0cHV0LTE3MzQzNjUyNjUxMDAgOnJvb3R7LS1tZXJtYWlkLWZvbnQtZmFtaWx5OiJ0cmVidWNoZXQgbXMiLHZlcmRhbmEsYXJpYWwsc2Fucy1zZXJpZjt9I2dlTWVybWFpZE91dHB1dC0xNzM0MzY1MjY1MTAwIC5jb25kaXRpb24gcGF0aHtmaWxsOiNGRkZGNzAhaW1wb3J0YW50O30jZ2VNZXJtYWlkT3V0cHV0LTE3MzQzNjUyNjUxMDAgLmNvbmRpdGlvbiByZWN0e2ZpbGw6I0ZGRkY3MCFpbXBvcnRhbnQ7fSNnZU1lcm1haWRPdXRwdXQtMTczNDM2NTI2NTEwMCAuY29uZGl0aW9uIHBvbHlnb257ZmlsbDojRkZGRjcwIWltcG9ydGFudDt9I2dlTWVybWFpZE91dHB1dC0xNzM0MzY1MjY1MTAwIC5jb25kaXRpb24gZWxsaXBzZXtmaWxsOiNGRkZGNzAhaW1wb3J0YW50O30jZ2VNZXJtYWlkT3V0cHV0LTE3MzQzNjUyNjUxMDAgLmNvbmRpdGlvbiBjaXJjbGV7ZmlsbDojRkZGRjcwIWltcG9ydGFudDt9I2dlTWVybWFpZE91dHB1dC0xNzM0MzY1MjY1MTAwIC5zdGFydCBwYXRoe2ZpbGw6I0IyRkY3MCFpbXBvcnRhbnQ7fSNnZU1lcm1haWRPdXRwdXQtMTczNDM2NTI2NTEwMCAuc3RhcnQgcmVjdHtmaWxsOiNCMkZGNzAhaW1wb3J0YW50O30jZ2VNZXJtYWlkT3V0cHV0LTE3MzQzNjUyNjUxMDAgLnN0YXJ0IHBvbHlnb257ZmlsbDojQjJGRjcwIWltcG9ydGFudDt9I2dlTWVybWFpZE91dHB1dC0xNzM0MzY1MjY1MTAwIC5zdGFydCBlbGxpcHNle2ZpbGw6I0IyRkY3MCFpbXBvcnRhbnQ7fSNnZU1lcm1haWRPdXRwdXQtMTczNDM2NTI2NTEwMCAuc3RhcnQgY2lyY2xle2ZpbGw6I0IyRkY3MCFpbXBvcnRhbnQ7fSNnZU1lcm1haWRPdXRwdXQtMTczNDM2NTI2NTEwMCAuc3RvcCBwYXRoe2ZpbGw6I0ZGNTk1OSFpbXBvcnRhbnQ7fSNnZU1lcm1haWRPdXRwdXQtMTczNDM2NTI2NTEwMCAuc3RvcCByZWN0e2ZpbGw6I0ZGNTk1OSFpbXBvcnRhbnQ7fSNnZU1lcm1haWRPdXRwdXQtMTczNDM2NTI2NTEwMCAuc3RvcCBwb2x5Z29ue2ZpbGw6I0ZGNTk1OSFpbXBvcnRhbnQ7fSNnZU1lcm1haWRPdXRwdXQtMTczNDM2NTI2NTEwMCAuc3RvcCBlbGxpcHNle2ZpbGw6I0ZGNTk1OSFpbXBvcnRhbnQ7fSNnZU1lcm1haWRPdXRwdXQtMTczNDM2NTI2NTEwMCAuc3RvcCBjaXJjbGV7ZmlsbDojRkY1OTU5IWltcG9ydGFudDt9PC9zdHlsZT48ZyB0cmFuc2Zvcm09InRyYW5zbGF0ZSgwLCAwKSI+PG1hcmtlciBvcmllbnQ9ImF1dG8iIG1hcmtlckhlaWdodD0iMTIiIG1hcmtlcldpZHRoPSIxMiIgbWFya2VyVW5pdHM9InVzZXJTcGFjZU9uVXNlIiByZWZZPSI1IiByZWZYPSI5IiB2aWV3Qm94PSIwIDAgMTAgMTAiIGNsYXNzPSJtYXJrZXIgZmxvd2NoYXJ0IiBpZD0iZmxvd2NoYXJ0LXBvaW50RW5kIj48cGF0aCBzdHlsZT0ic3Ryb2tlLXdpZHRoOiAxOyBzdHJva2UtZGFzaGFycmF5OiAxLCAwOyIgY2xhc3M9ImFycm93TWFya2VyUGF0aCIgZD0iTSAwIDAgTCAxMCA1IEwgMCAxMCB6Ij48L3BhdGg+PC9tYXJrZXI+PG1hcmtlciBvcmllbnQ9ImF1dG8iIG1hcmtlckhlaWdodD0iMTIiIG1hcmtlcldpZHRoPSIxMiIgbWFya2VyVW5pdHM9InVzZXJTcGFjZU9uVXNlIiByZWZZPSI1IiByZWZYPSIwIiB2aWV3Qm94PSIwIDAgMTAgMTAiIGNsYXNzPSJtYXJrZXIgZmxvd2NoYXJ0IiBpZD0iZmxvd2NoYXJ0LXBvaW50U3RhcnQiPjxwYXRoIHN0eWxlPSJzdHJva2Utd2lkdGg6IDE7IHN0cm9rZS1kYXNoYXJyYXk6IDEsIDA7IiBjbGFzcz0iYXJyb3dNYXJrZXJQYXRoIiBkPSJNIDAgNSBMIDEwIDEwIEwgMTAgMCB6Ij48L3BhdGg+PC9tYXJrZXI+PG1hcmtlciBvcmllbnQ9ImF1dG8iIG1hcmtlckhlaWdodD0iMTEiIG1hcmtlcldpZHRoPSIxMSIgbWFya2VyVW5pdHM9InVzZXJTcGFjZU9uVXNlIiByZWZZPSI1IiByZWZYPSIxMSIgdmlld0JveD0iMCAwIDEwIDEwIiBjbGFzcz0ibWFya2VyIGZsb3djaGFydCIgaWQ9ImZsb3djaGFydC1jaXJjbGVFbmQiPjxjaXJjbGUgc3R5bGU9InN0cm9rZS13aWR0aDogMTsgc3Ryb2tlLWRhc2hhcnJheTogMSwgMDsiIGNsYXNzPSJhcnJvd01hcmtlclBhdGgiIHI9IjUiIGN5PSI1IiBjeD0iNSI+PC9jaXJjbGU+PC9tYXJrZXI+PG1hcmtlciBvcmllbnQ9ImF1dG8iIG1hcmtlckhlaWdodD0iMTEiIG1hcmtlcldpZHRoPSIxMSIgbWFya2VyVW5pdHM9InVzZXJTcGFjZU9uVXNlIiByZWZZPSI1IiByZWZYPSItMSIgdmlld0JveD0iMCAwIDEwIDEwIiBjbGFzcz0ibWFya2VyIGZsb3djaGFydCIgaWQ9ImZsb3djaGFydC1jaXJjbGVTdGFydCI+PGNpcmNsZSBzdHlsZT0ic3Ryb2tlLXdpZHRoOiAxOyBzdHJva2UtZGFzaGFycmF5OiAxLCAwOyIgY2xhc3M9ImFycm93TWFya2VyUGF0aCIgcj0iNSIgY3k9IjUiIGN4PSI1Ij48L2NpcmNsZT48L21hcmtlcj48bWFya2VyIG9yaWVudD0iYXV0byIgbWFya2VySGVpZ2h0PSIxMSIgbWFya2VyV2lkdGg9IjExIiBtYXJrZXJVbml0cz0idXNlclNwYWNlT25Vc2UiIHJlZlk9IjUuMiIgcmVmWD0iMTIiIHZpZXdCb3g9IjAgMCAxMSAxMSIgY2xhc3M9Im1hcmtlciBjcm9zcyBmbG93Y2hhcnQiIGlkPSJmbG93Y2hhcnQtY3Jvc3NFbmQiPjxwYXRoIHN0eWxlPSJzdHJva2Utd2lkdGg6IDI7IHN0cm9rZS1kYXNoYXJyYXk6IDEsIDA7IiBjbGFzcz0iYXJyb3dNYXJrZXJQYXRoIiBkPSJNIDEsMSBsIDksOSBNIDEwLDEgbCAtOSw5Ij48L3BhdGg+PC9tYXJrZXI+PG1hcmtlciBvcmllbnQ9ImF1dG8iIG1hcmtlckhlaWdodD0iMTEiIG1hcmtlcldpZHRoPSIxMSIgbWFya2VyVW5pdHM9InVzZXJTcGFjZU9uVXNlIiByZWZZPSI1LjIiIHJlZlg9Ii0xIiB2aWV3Qm94PSIwIDAgMTEgMTEiIGNsYXNzPSJtYXJrZXIgY3Jvc3MgZmxvd2NoYXJ0IiBpZD0iZmxvd2NoYXJ0LWNyb3NzU3RhcnQiPjxwYXRoIHN0eWxlPSJzdHJva2Utd2lkdGg6IDI7IHN0cm9rZS1kYXNoYXJyYXk6IDEsIDA7IiBjbGFzcz0iYXJyb3dNYXJrZXJQYXRoIiBkPSJNIDEsMSBsIDksOSBNIDEwLDEgbCAtOSw5Ij48L3BhdGg+PC9tYXJrZXI+PGcgY2xhc3M9InJvb3QiPjxnIGNsYXNzPSJjbHVzdGVycyI+PC9nPjxnIGNsYXNzPSJlZGdlUGF0aHMiPjxwYXRoIG1hcmtlci1lbmQ9InVybCgjZmxvd2NoYXJ0LXBvaW50RW5kKSIgc3R5bGU9ImZpbGw6bm9uZTsiIGNsYXNzPSJlZGdlLXRoaWNrbmVzcy1ub3JtYWwgZWRnZS1wYXR0ZXJuLXNvbGlkIGZsb3djaGFydC1saW5rIExTLXN0YXJ0IExFLXN0MSIgaWQ9Ikwtc3RhcnQtc3QxLTAiIGQ9Ik02OC4zOTQwNTgyMjc1MzkwNiwyNi41TDcyLjU2MDcyNDg5NDIwNTczLDI2LjVDNzYuNzI3MzkxNTYwODcyMzksMjYuNSw4NS4wNjA3MjQ4OTQyMDU3MywyNi41LDkzLjM5NDA1ODIyNzUzOTA2LDI2LjVDMTAxLjcyNzM5MTU2MDg3MjM5LDI2LjUsMTEwLjA2MDcyNDg5NDIwNTczLDI2LjUsMTE0LjIyNzM5MTU2MDg3MjM5LDI2LjVMMTE4LjM5NDA1ODIyNzUzOTA2LDI2LjUiPjwvcGF0aD48cGF0aCBtYXJrZXItZW5kPSJ1cmwoI2Zsb3djaGFydC1wb2ludEVuZCkiIHN0eWxlPSJmaWxsOm5vbmU7IiBjbGFzcz0iZWRnZS10aGlja25lc3Mtbm9ybWFsIGVkZ2UtcGF0dGVybi1zb2xpZCBmbG93Y2hhcnQtbGluayBMUy1zdDEgTEUtc3QyIiBpZD0iTC1zdDEtc3QyLTAiIGQ9Ik0yNDEuMzAwMzA4MjI3NTM5MDYsMjYuNUwyNDUuNDY2OTc0ODk0MjA1NzIsMjYuNUMyNDkuNjMzNjQxNTYwODcyNCwyNi41LDI1Ny45NjY5NzQ4OTQyMDU3NSwyNi41LDI2Ni4zMDAzMDgyMjc1MzkwNiwyNi41QzI3NC42MzM2NDE1NjA4NzI0LDI2LjUsMjgyLjk2Njk3NDg5NDIwNTc1LDI2LjUsMjg3LjEzMzY0MTU2MDg3MjQsMjYuNUwyOTEuMzAwMzA4MjI3NTM5MDYsMjYuNSI+PC9wYXRoPjxwYXRoIG1hcmtlci1lbmQ9InVybCgjZmxvd2NoYXJ0LXBvaW50RW5kKSIgc3R5bGU9ImZpbGw6bm9uZTsiIGNsYXNzPSJlZGdlLXRoaWNrbmVzcy1ub3JtYWwgZWRnZS1wYXR0ZXJuLXNvbGlkIGZsb3djaGFydC1saW5rIExTLXN0MiBMRS1zdDMiIGlkPSJMLXN0Mi1zdDMtMCIgZD0iTTM3OC43MjIxODMyMjc1MzkwNiwyNi41TDM4Mi44ODg4NDk4OTQyMDU3NSwyNi41QzM4Ny4wNTU1MTY1NjA4NzI0LDI2LjUsMzk1LjM4ODg0OTg5NDIwNTc1LDI2LjUsNDAzLjcyMjE4MzIyNzUzOTA2LDI2LjVDNDEyLjA1NTUxNjU2MDg3MjQsMjYuNSw0MjAuMzg4ODQ5ODk0MjA1NzUsMjYuNSw0MjQuNTU1NTE2NTYwODcyNCwyNi41TDQyOC43MjIxODMyMjc1MzkwNiwyNi41Ij48L3BhdGg+PHBhdGggbWFya2VyLWVuZD0idXJsKCNmbG93Y2hhcnQtcG9pbnRFbmQpIiBzdHlsZT0iZmlsbDpub25lOyIgY2xhc3M9ImVkZ2UtdGhpY2tuZXNzLW5vcm1hbCBlZGdlLXBhdHRlcm4tc29saWQgZmxvd2NoYXJ0LWxpbmsgTFMtc3QzIExFLXN0NCIgaWQ9Ikwtc3QzLXN0NC0wIiBkPSJNNTQwLjk3MjE4MzIyNzUzOTEsMjYuNUw1NDUuMTM4ODQ5ODk0MjA1NywyNi41QzU0OS4zMDU1MTY1NjA4NzI0LDI2LjUsNTU3LjYzODg0OTg5NDIwNTcsMjYuNSw1NjUuOTcyMTgzMjI3NTM5MSwyNi41QzU3NC4zMDU1MTY1NjA4NzI0LDI2LjUsNTgyLjYzODg0OTg5NDIwNTcsMjYuNSw1ODYuODA1NTE2NTYwODcyNCwyNi41TDU5MC45NzIxODMyMjc1MzkxLDI2LjUiPjwvcGF0aD48cGF0aCBtYXJrZXItZW5kPSJ1cmwoI2Zsb3djaGFydC1wb2ludEVuZCkiIHN0eWxlPSJmaWxsOm5vbmU7IiBjbGFzcz0iZWRnZS10aGlja25lc3Mtbm9ybWFsIGVkZ2UtcGF0dGVybi1zb2xpZCBmbG93Y2hhcnQtbGluayBMUy1zdDQgTEUtc3RvcCIgaWQ9Ikwtc3Q0LXN0b3AtMCIgZD0iTTcwMC4xMjg0MzMyMjc1MzkxLDI2LjVMNzA0LjI5NTA5OTg5NDIwNTcsMjYuNUM3MDguNDYxNzY2NTYwODcyNCwyNi41LDcxNi43OTUwOTk4OTQyMDU3LDI2LjUsNzI1LjEyODQzMzIyNzUzOTEsMjYuNUM3MzMuNDYxNzY2NTYwODcyNCwyNi41LDc0MS43OTUwOTk4OTQyMDU3LDI2LjUsNzQ1Ljk2MTc2NjU2MDg3MjQsMjYuNUw3NTAuMTI4NDMzMjI3NTM5MSwyNi41Ij48L3BhdGg+PC9nPjxnIGNsYXNzPSJlZGdlTGFiZWxzIj48ZyBjbGFzcz0iZWRnZUxhYmVsIj48ZyB0cmFuc2Zvcm09InRyYW5zbGF0ZSgwLCAwKSIgY2xhc3M9ImxhYmVsIj48cmVjdCBoZWlnaHQ9IjAiIHdpZHRoPSIwIiByeT0iMCIgcng9IjAiPjwvcmVjdD48dGV4dCBzdHlsZT0iIj48dHNwYW4gY2xhc3M9InJvdyIgeD0iMCIgZHk9IjFlbSIgeG1sOnNwYWNlPSJwcmVzZXJ2ZSI+PC90c3Bhbj48L3RleHQ+PC9nPjwvZz48ZyBjbGFzcz0iZWRnZUxhYmVsIj48ZyB0cmFuc2Zvcm09InRyYW5zbGF0ZSgwLCAwKSIgY2xhc3M9ImxhYmVsIj48cmVjdCBoZWlnaHQ9IjAiIHdpZHRoPSIwIiByeT0iMCIgcng9IjAiPjwvcmVjdD48dGV4dCBzdHlsZT0iIj48dHNwYW4gY2xhc3M9InJvdyIgeD0iMCIgZHk9IjFlbSIgeG1sOnNwYWNlPSJwcmVzZXJ2ZSI+PC90c3Bhbj48L3RleHQ+PC9nPjwvZz48ZyBjbGFzcz0iZWRnZUxhYmVsIj48ZyB0cmFuc2Zvcm09InRyYW5zbGF0ZSgwLCAwKSIgY2xhc3M9ImxhYmVsIj48cmVjdCBoZWlnaHQ9IjAiIHdpZHRoPSIwIiByeT0iMCIgcng9IjAiPjwvcmVjdD48dGV4dCBzdHlsZT0iIj48dHNwYW4gY2xhc3M9InJvdyIgeD0iMCIgZHk9IjFlbSIgeG1sOnNwYWNlPSJwcmVzZXJ2ZSI+PC90c3Bhbj48L3RleHQ+PC9nPjwvZz48ZyBjbGFzcz0iZWRnZUxhYmVsIj48ZyB0cmFuc2Zvcm09InRyYW5zbGF0ZSgwLCAwKSIgY2xhc3M9ImxhYmVsIj48cmVjdCBoZWlnaHQ9IjAiIHdpZHRoPSIwIiByeT0iMCIgcng9IjAiPjwvcmVjdD48dGV4dCBzdHlsZT0iIj48dHNwYW4gY2xhc3M9InJvdyIgeD0iMCIgZHk9IjFlbSIgeG1sOnNwYWNlPSJwcmVzZXJ2ZSI+PC90c3Bhbj48L3RleHQ+PC9nPjwvZz48ZyBjbGFzcz0iZWRnZUxhYmVsIj48ZyB0cmFuc2Zvcm09InRyYW5zbGF0ZSgwLCAwKSIgY2xhc3M9ImxhYmVsIj48cmVjdCBoZWlnaHQ9IjAiIHdpZHRoPSIwIiByeT0iMCIgcng9IjAiPjwvcmVjdD48dGV4dCBzdHlsZT0iIj48dHNwYW4gY2xhc3M9InJvdyIgeD0iMCIgZHk9IjFlbSIgeG1sOnNwYWNlPSJwcmVzZXJ2ZSI+PC90c3Bhbj48L3RleHQ+PC9nPjwvZz48L2c+PGcgY2xhc3M9Im5vZGVzIj48ZyB0cmFuc2Zvcm09InRyYW5zbGF0ZSgzOC4xOTcwMjkxMTM3Njk1MywgMjYuNSkiIGlkPSJmbG93Y2hhcnQtc3RhcnQtNTYiIGNsYXNzPSJub2RlIGRlZmF1bHQgc3RhcnQiPjxyZWN0IGhlaWdodD0iMzciIHdpZHRoPSI2MC4zOTQwNTgyMjc1MzkwNiIgeT0iLTE4LjUiIHg9Ii0zMC4xOTcwMjkxMTM3Njk1MyIgcnk9IjE4LjUiIHJ4PSIxOC41IiBzdHlsZT0iIj48L3JlY3Q+PGcgdHJhbnNmb3JtPSJ0cmFuc2xhdGUoLTE4LjA3MjAyOTExMzc2OTUzLCAtMTEpIiBzdHlsZT0iIiBjbGFzcz0ibGFiZWwiPjx0ZXh0IHN0eWxlPSIiPjx0c3BhbiBjbGFzcz0icm93IiB4PSIwIiBkeT0iMWVtIiB4bWw6c3BhY2U9InByZXNlcnZlIj5TdGFydDwvdHNwYW4+PC90ZXh0PjwvZz48L2c+PGcgdHJhbnNmb3JtPSJ0cmFuc2xhdGUoNzc5LjMwMDMwODIyNzUzOTEsIDI2LjUpIiBpZD0iZmxvd2NoYXJ0LXN0b3AtNTciIGNsYXNzPSJub2RlIGRlZmF1bHQgc3RvcCI+PHJlY3QgaGVpZ2h0PSIzNyIgd2lkdGg9IjU4LjM0Mzc1IiB5PSItMTguNSIgeD0iLTI5LjE3MTg3NSIgcnk9IjE4LjUiIHJ4PSIxOC41IiBzdHlsZT0iIj48L3JlY3Q+PGcgdHJhbnNmb3JtPSJ0cmFuc2xhdGUoLTE3LjA0Njg3NSwgLTExKSIgc3R5bGU9IiIgY2xhc3M9ImxhYmVsIj48dGV4dCBzdHlsZT0iIj48dHNwYW4gY2xhc3M9InJvdyIgeD0iMCIgZHk9IjFlbSIgeG1sOnNwYWNlPSJwcmVzZXJ2ZSI+U3RvcDwvdHNwYW4+PC90ZXh0PjwvZz48L2c+PGcgdHJhbnNmb3JtPSJ0cmFuc2xhdGUoMTc5Ljg0NzE4MzIyNzUzOTA2LCAyNi41KSIgaWQ9ImZsb3djaGFydC1zdDEtNTgiIGNsYXNzPSJub2RlIGRlZmF1bHQgZGVmYXVsdCI+PHJlY3QgaGVpZ2h0PSIzNyIgd2lkdGg9IjEyMi45MDYyNSIgeT0iLTE4LjUiIHg9Ii02MS40NTMxMjUiIHJ5PSI1IiByeD0iNSIgc3R5bGU9IiIgY2xhc3M9ImJhc2ljIGxhYmVsLWNvbnRhaW5lciI+PC9yZWN0PjxnIHRyYW5zZm9ybT0idHJhbnNsYXRlKC01My45NTMxMjUsIC0xMSkiIHN0eWxlPSIiIGNsYXNzPSJsYWJlbCI+PHRleHQgc3R5bGU9IiI+PHRzcGFuIGNsYXNzPSJyb3ciIHg9IjAiIGR5PSIxZW0iIHhtbDpzcGFjZT0icHJlc2VydmUiPkNvbm5lY3QgdG8gREI8L3RzcGFuPjwvdGV4dD48L2c+PC9nPjxnIHRyYW5zZm9ybT0idHJhbnNsYXRlKDMzNS4wMTEyNDU3Mjc1MzkwNiwgMjYuNSkiIGlkPSJmbG93Y2hhcnQtc3QyLTU5IiBjbGFzcz0ibm9kZSBkZWZhdWx0IGRlZmF1bHQiPjxyZWN0IGhlaWdodD0iMzciIHdpZHRoPSI4Ny40MjE4NzUiIHk9Ii0xOC41IiB4PSItNDMuNzEwOTM3NSIgcnk9IjUiIHJ4PSI1IiBzdHlsZT0iIiBjbGFzcz0iYmFzaWMgbGFiZWwtY29udGFpbmVyIj48L3JlY3Q+PGcgdHJhbnNmb3JtPSJ0cmFuc2xhdGUoLTM2LjIxMDkzNzUsIC0xMSkiIHN0eWxlPSIiIGNsYXNzPSJsYWJlbCI+PHRleHQgc3R5bGU9IiI+PHRzcGFuIGNsYXNzPSJyb3ciIHg9IjAiIGR5PSIxZW0iIHhtbDpzcGFjZT0icHJlc2VydmUiPlF1ZXJ5IERCPC90c3Bhbj48L3RleHQ+PC9nPjwvZz48ZyB0cmFuc2Zvcm09InRyYW5zbGF0ZSg0ODQuODQ3MTgzMjI3NTM5MDYsIDI2LjUpIiBpZD0iZmxvd2NoYXJ0LXN0My02MCIgY2xhc3M9Im5vZGUgZGVmYXVsdCBkZWZhdWx0Ij48cmVjdCBoZWlnaHQ9IjM3IiB3aWR0aD0iMTEyLjI1IiB5PSItMTguNSIgeD0iLTU2LjEyNSIgcnk9IjUiIHJ4PSI1IiBzdHlsZT0iIiBjbGFzcz0iYmFzaWMgbGFiZWwtY29udGFpbmVyIj48L3JlY3Q+PGcgdHJhbnNmb3JtPSJ0cmFuc2xhdGUoLTQ4LjYyNSwgLTExKSIgc3R5bGU9IiIgY2xhc3M9ImxhYmVsIj48dGV4dCBzdHlsZT0iIj48dHNwYW4gY2xhc3M9InJvdyIgeD0iMCIgZHk9IjFlbSIgeG1sOnNwYWNlPSJwcmVzZXJ2ZSI+UHJvY2VzcyBEYXRhPC90c3Bhbj48L3RleHQ+PC9nPjwvZz48ZyB0cmFuc2Zvcm09InRyYW5zbGF0ZSg2NDUuNTUwMzA4MjI3NTM5MSwgMjYuNSkiIGlkPSJmbG93Y2hhcnQtc3Q0LTYxIiBjbGFzcz0ibm9kZSBkZWZhdWx0IGRlZmF1bHQiPjxyZWN0IGhlaWdodD0iMzciIHdpZHRoPSIxMDkuMTU2MjUiIHk9Ii0xOC41IiB4PSItNTQuNTc4MTI1IiByeT0iNSIgcng9IjUiIHN0eWxlPSIiIGNsYXNzPSJiYXNpYyBsYWJlbC1jb250YWluZXIiPjwvcmVjdD48ZyB0cmFuc2Zvcm09InRyYW5zbGF0ZSgtNDcuMDc4MTI1LCAtMTEpIiBzdHlsZT0iIiBjbGFzcz0ibGFiZWwiPjx0ZXh0IHN0eWxlPSIiPjx0c3BhbiBjbGFzcz0icm93IiB4PSIwIiBkeT0iMWVtIiB4bWw6c3BhY2U9InByZXNlcnZlIj5EaXNwbGF5IERhdGE8L3RzcGFuPjwvdGV4dD48L2c+PC9nPjwvZz48L2c+PC9nPjwvc3ZnPg==;" vertex="1" parent="1">
                        <mxGeometry x="-950" y="510" width="1920" height="400" as="geometry"/>
                    </mxCell>
                </UserObject>
                <mxCell id="6" value="Fetching Employee Data:" style="text;html=1;align=center;verticalAlign=middle;resizable=0;points=[];autosize=1;strokeColor=none;fillColor=none;fontStyle=1;fontSize=40;" vertex="1" parent="1">
                    <mxGeometry x="-950" y="550" width="520" height="60" as="geometry"/>
                </mxCell>
                <UserObject label="" mermaidData="{&#10;  &quot;data&quot;: &quot;flowchart LR;\n\n%% Styling\n  classDef condition fill:#FFFF70\n  classDef start fill:#B2FF70\n  classDef stop fill:#FF5959\n\n%% Objects\n  start([Start]):::start\n  stop([Stop]):::stop\n\n  st1(Connect to Database)\n  st2(Input Worked Hours)\n  st3(Validate Data)\n  st4(Update Database)\n\n%%  con1{Is input valid?}:::condition\n\n%% Flow\n\n  start --&gt; st1\n  st1 --&gt; st2\n  st2 --&gt; st3\n  st3 --&gt; st4\n  st4 --&gt; stop&quot;,&#10;  &quot;config&quot;: {&#10;    &quot;theme&quot;: &quot;neutral&quot;,&#10;    &quot;arrowMarkerAbsolute&quot;: false,&#10;    &quot;flowchart&quot;: {&#10;      &quot;htmlLabels&quot;: false&#10;    },&#10;    &quot;sequence&quot;: {&#10;      &quot;diagramMarginX&quot;: 50,&#10;      &quot;diagramMarginY&quot;: 10,&#10;      &quot;actorMargin&quot;: 50,&#10;      &quot;width&quot;: 150,&#10;      &quot;height&quot;: 65,&#10;      &quot;boxMargin&quot;: 10,&#10;      &quot;boxTextMargin&quot;: 5,&#10;      &quot;noteMargin&quot;: 10,&#10;      &quot;messageMargin&quot;: 35,&#10;      &quot;mirrorActors&quot;: true,&#10;      &quot;bottomMarginAdj&quot;: 1,&#10;      &quot;useMaxWidth&quot;: true,&#10;      &quot;rightAngles&quot;: false,&#10;      &quot;showSequenceNumbers&quot;: false&#10;    },&#10;    &quot;gantt&quot;: {&#10;      &quot;titleTopMargin&quot;: 25,&#10;      &quot;barHeight&quot;: 20,&#10;      &quot;barGap&quot;: 4,&#10;      &quot;topPadding&quot;: 50,&#10;      &quot;leftPadding&quot;: 75,&#10;      &quot;gridLineStartPadding&quot;: 35,&#10;      &quot;fontSize&quot;: 11,&#10;      &quot;fontFamily&quot;: &quot;\&quot;Open-Sans\&quot;, \&quot;sans-serif\&quot;&quot;,&#10;      &quot;numberSectionStyles&quot;: 4,&#10;      &quot;axisFormat&quot;: &quot;%Y-%m-%d&quot;&#10;    },&#10;    &quot;securityLevel&quot;: &quot;strict&quot;,&#10;    &quot;startOnLoad&quot;: false,&#10;    &quot;themeVariables&quot;: {&#10;      &quot;primaryColor&quot;: &quot;#eee&quot;,&#10;      &quot;contrast&quot;: &quot;#707070&quot;,&#10;      &quot;secondaryColor&quot;: &quot;hsl(0, 0%, 98.9215686275%)&quot;,&#10;      &quot;background&quot;: &quot;#ffffff&quot;,&#10;      &quot;tertiaryColor&quot;: &quot;hsl(-160, 0%, 93.3333333333%)&quot;,&#10;      &quot;primaryBorderColor&quot;: &quot;hsl(0, 0%, 83.3333333333%)&quot;,&#10;      &quot;secondaryBorderColor&quot;: &quot;hsl(0, 0%, 88.9215686275%)&quot;,&#10;      &quot;tertiaryBorderColor&quot;: &quot;hsl(-160, 0%, 83.3333333333%)&quot;,&#10;      &quot;primaryTextColor&quot;: &quot;#111111&quot;,&#10;      &quot;secondaryTextColor&quot;: &quot;rgb(2.7499999999, 2.7499999999, 2.7499999999)&quot;,&#10;      &quot;tertiaryTextColor&quot;: &quot;rgb(17.0000000001, 17.0000000001, 17.0000000001)&quot;,&#10;      &quot;lineColor&quot;: &quot;#666&quot;,&#10;      &quot;textColor&quot;: &quot;#000000&quot;,&#10;      &quot;mainBkg&quot;: &quot;#eee&quot;,&#10;      &quot;secondBkg&quot;: &quot;hsl(0, 0%, 98.9215686275%)&quot;,&#10;      &quot;border1&quot;: &quot;#999&quot;,&#10;      &quot;border2&quot;: &quot;#707070&quot;,&#10;      &quot;note&quot;: &quot;#ffa&quot;,&#10;      &quot;text&quot;: &quot;#333&quot;,&#10;      &quot;critical&quot;: &quot;#d42&quot;,&#10;      &quot;done&quot;: &quot;#bbb&quot;,&#10;      &quot;arrowheadColor&quot;: &quot;#333333&quot;,&#10;      &quot;fontFamily&quot;: &quot;\&quot;trebuchet ms\&quot;, verdana, arial, sans-serif&quot;,&#10;      &quot;fontSize&quot;: &quot;16px&quot;,&#10;      &quot;nodeBkg&quot;: &quot;#eee&quot;,&#10;      &quot;nodeBorder&quot;: &quot;#999&quot;,&#10;      &quot;clusterBkg&quot;: &quot;hsl(0, 0%, 98.9215686275%)&quot;,&#10;      &quot;clusterBorder&quot;: &quot;#707070&quot;,&#10;      &quot;defaultLinkColor&quot;: &quot;#666&quot;,&#10;      &quot;titleColor&quot;: &quot;#333&quot;,&#10;      &quot;edgeLabelBackground&quot;: &quot;white&quot;,&#10;      &quot;actorBorder&quot;: &quot;hsl(0, 0%, 83%)&quot;,&#10;      &quot;actorBkg&quot;: &quot;#eee&quot;,&#10;      &quot;actorTextColor&quot;: &quot;#333&quot;,&#10;      &quot;actorLineColor&quot;: &quot;#666&quot;,&#10;      &quot;signalColor&quot;: &quot;#333&quot;,&#10;      &quot;signalTextColor&quot;: &quot;#333&quot;,&#10;      &quot;labelBoxBkgColor&quot;: &quot;#eee&quot;,&#10;      &quot;labelBoxBorderColor&quot;: &quot;hsl(0, 0%, 83%)&quot;,&#10;      &quot;labelTextColor&quot;: &quot;#333&quot;,&#10;      &quot;loopTextColor&quot;: &quot;#333&quot;,&#10;      &quot;noteBorderColor&quot;: &quot;#999&quot;,&#10;      &quot;noteBkgColor&quot;: &quot;#666&quot;,&#10;      &quot;noteTextColor&quot;: &quot;#fff&quot;,&#10;      &quot;activationBorderColor&quot;: &quot;#666&quot;,&#10;      &quot;activationBkgColor&quot;: &quot;#f4f4f4&quot;,&#10;      &quot;sequenceNumberColor&quot;: &quot;white&quot;,&#10;      &quot;sectionBkgColor&quot;: &quot;hsl(0, 0%, 73.9215686275%)&quot;,&#10;      &quot;altSectionBkgColor&quot;: &quot;white&quot;,&#10;      &quot;sectionBkgColor2&quot;: &quot;hsl(0, 0%, 73.9215686275%)&quot;,&#10;      &quot;excludeBkgColor&quot;: &quot;#eeeeee&quot;,&#10;      &quot;taskBorderColor&quot;: &quot;hsl(0, 0%, 33.9215686275%)&quot;,&#10;      &quot;taskBkgColor&quot;: &quot;#707070&quot;,&#10;      &quot;taskTextLightColor&quot;: &quot;white&quot;,&#10;      &quot;taskTextColor&quot;: &quot;white&quot;,&#10;      &quot;taskTextDarkColor&quot;: &quot;#333&quot;,&#10;      &quot;taskTextOutsideColor&quot;: &quot;#333&quot;,&#10;      &quot;taskTextClickableColor&quot;: &quot;#003163&quot;,&#10;      &quot;activeTaskBorderColor&quot;: &quot;hsl(0, 0%, 33.9215686275%)&quot;,&#10;      &quot;activeTaskBkgColor&quot;: &quot;#eee&quot;,&#10;      &quot;gridColor&quot;: &quot;hsl(0, 0%, 90%)&quot;,&#10;      &quot;doneTaskBkgColor&quot;: &quot;#bbb&quot;,&#10;      &quot;doneTaskBorderColor&quot;: &quot;#666&quot;,&#10;      &quot;critBkgColor&quot;: &quot;#d42&quot;,&#10;      &quot;critBorderColor&quot;: &quot;hsl(10.9090909091, 73.3333333333%, 40%)&quot;,&#10;      &quot;todayLineColor&quot;: &quot;#d42&quot;,&#10;      &quot;personBorder&quot;: &quot;calculated&quot;,&#10;      &quot;personBkg&quot;: &quot;calculated&quot;,&#10;      &quot;labelColor&quot;: &quot;black&quot;,&#10;      &quot;errorBkgColor&quot;: &quot;#552222&quot;,&#10;      &quot;errorTextColor&quot;: &quot;#552222&quot;,&#10;      &quot;transitionColor&quot;: &quot;#000&quot;,&#10;      &quot;transitionLabelColor&quot;: &quot;#000000&quot;,&#10;      &quot;stateLabelColor&quot;: &quot;#111111&quot;,&#10;      &quot;stateBkg&quot;: &quot;#eee&quot;,&#10;      &quot;labelBackgroundColor&quot;: &quot;#eee&quot;,&#10;      &quot;compositeBackground&quot;: &quot;#ffffff&quot;,&#10;      &quot;altBackground&quot;: &quot;#f4f4f4&quot;,&#10;      &quot;compositeTitleBackground&quot;: &quot;#eee&quot;,&#10;      &quot;stateBorder&quot;: &quot;#000&quot;,&#10;      &quot;innerEndBackground&quot;: &quot;hsl(0, 0%, 83.3333333333%)&quot;,&#10;      &quot;specialStateColor&quot;: &quot;#222&quot;,&#10;      &quot;classText&quot;: &quot;#111111&quot;,&#10;      &quot;fillType0&quot;: &quot;#eee&quot;,&#10;      &quot;fillType1&quot;: &quot;hsl(0, 0%, 98.9215686275%)&quot;,&#10;      &quot;fillType2&quot;: &quot;hsl(64, 0%, 93.3333333333%)&quot;,&#10;      &quot;fillType3&quot;: &quot;hsl(64, 0%, 98.9215686275%)&quot;,&#10;      &quot;fillType4&quot;: &quot;hsl(-64, 0%, 93.3333333333%)&quot;,&#10;      &quot;fillType5&quot;: &quot;hsl(-64, 0%, 98.9215686275%)&quot;,&#10;      &quot;fillType6&quot;: &quot;hsl(128, 0%, 93.3333333333%)&quot;,&#10;      &quot;fillType7&quot;: &quot;hsl(128, 0%, 98.9215686275%)&quot;,&#10;      &quot;pie1&quot;: &quot;#F4F4F4&quot;,&#10;      &quot;pie2&quot;: &quot;#555&quot;,&#10;      &quot;pie3&quot;: &quot;#BBB&quot;,&#10;      &quot;pie4&quot;: &quot;#777&quot;,&#10;      &quot;pie5&quot;: &quot;#999&quot;,&#10;      &quot;pie6&quot;: &quot;#DDD&quot;,&#10;      &quot;pie7&quot;: &quot;#FFF&quot;,&#10;      &quot;pie8&quot;: &quot;#DDD&quot;,&#10;      &quot;pie9&quot;: &quot;#BBB&quot;,&#10;      &quot;pie10&quot;: &quot;#999&quot;,&#10;      &quot;pie11&quot;: &quot;#777&quot;,&#10;      &quot;pie12&quot;: &quot;#555&quot;,&#10;      &quot;pieTitleTextSize&quot;: &quot;25px&quot;,&#10;      &quot;pieTitleTextColor&quot;: &quot;#333&quot;,&#10;      &quot;pieSectionTextSize&quot;: &quot;17px&quot;,&#10;      &quot;pieSectionTextColor&quot;: &quot;#000000&quot;,&#10;      &quot;pieLegendTextSize&quot;: &quot;17px&quot;,&#10;      &quot;pieLegendTextColor&quot;: &quot;#333&quot;,&#10;      &quot;pieStrokeColor&quot;: &quot;black&quot;,&#10;      &quot;pieStrokeWidth&quot;: &quot;2px&quot;,&#10;      &quot;pieOpacity&quot;: &quot;0.7&quot;,&#10;      &quot;requirementBackground&quot;: &quot;#eee&quot;,&#10;      &quot;requirementBorderColor&quot;: &quot;hsl(0, 0%, 83.3333333333%)&quot;,&#10;      &quot;requirementBorderSize&quot;: &quot;hsl(0, 0%, 83.3333333333%)&quot;,&#10;      &quot;requirementTextColor&quot;: &quot;#111111&quot;,&#10;      &quot;relationColor&quot;: &quot;#666&quot;,&#10;      &quot;relationLabelBackground&quot;: &quot;white&quot;,&#10;      &quot;relationLabelColor&quot;: &quot;#333&quot;,&#10;      &quot;git0&quot;: &quot;hsl(0, 0%, 70.6862745098%)&quot;,&#10;      &quot;git1&quot;: &quot;#555&quot;,&#10;      &quot;git2&quot;: &quot;#BBB&quot;,&#10;      &quot;git3&quot;: &quot;#777&quot;,&#10;      &quot;git4&quot;: &quot;#999&quot;,&#10;      &quot;git5&quot;: &quot;#DDD&quot;,&#10;      &quot;git6&quot;: &quot;#FFF&quot;,&#10;      &quot;git7&quot;: &quot;#DDD&quot;,&#10;      &quot;gitInv0&quot;: &quot;rgb(74.75, 74.75, 74.75)&quot;,&#10;      &quot;gitInv1&quot;: &quot;#aaaaaa&quot;,&#10;      &quot;gitInv2&quot;: &quot;#444444&quot;,&#10;      &quot;gitInv3&quot;: &quot;#888888&quot;,&#10;      &quot;gitInv4&quot;: &quot;#666666&quot;,&#10;      &quot;gitInv5&quot;: &quot;#222222&quot;,&#10;      &quot;gitInv6&quot;: &quot;#000000&quot;,&#10;      &quot;gitInv7&quot;: &quot;#222222&quot;,&#10;      &quot;branchLabelColor&quot;: &quot;#333&quot;,&#10;      &quot;gitBranchLabel0&quot;: &quot;#333&quot;,&#10;      &quot;gitBranchLabel1&quot;: &quot;white&quot;,&#10;      &quot;gitBranchLabel2&quot;: &quot;#333&quot;,&#10;      &quot;gitBranchLabel3&quot;: &quot;white&quot;,&#10;      &quot;gitBranchLabel4&quot;: &quot;#333&quot;,&#10;      &quot;gitBranchLabel5&quot;: &quot;#333&quot;,&#10;      &quot;gitBranchLabel6&quot;: &quot;#333&quot;,&#10;      &quot;gitBranchLabel7&quot;: &quot;#333&quot;,&#10;      &quot;tagLabelColor&quot;: &quot;#111111&quot;,&#10;      &quot;tagLabelBackground&quot;: &quot;#eee&quot;,&#10;      &quot;tagLabelBorder&quot;: &quot;hsl(0, 0%, 83.3333333333%)&quot;,&#10;      &quot;tagLabelFontSize&quot;: &quot;10px&quot;,&#10;      &quot;commitLabelColor&quot;: &quot;rgb(2.7499999999, 2.7499999999, 2.7499999999)&quot;,&#10;      &quot;commitLabelBackground&quot;: &quot;hsl(0, 0%, 98.9215686275%)&quot;,&#10;      &quot;commitLabelFontSize&quot;: &quot;10px&quot;&#10;    }&#10;  }&#10;}" id="7">
                    <mxCell style="shape=image;noLabel=1;verticalAlign=top;imageAspect=1;image=data:image/svg+xml,PHN2ZyB2aWV3Qm94PSIwIDAgOTg0LjUxOTA1ODIyNzUzOTEgNTMiIHN0eWxlPSJtYXgtd2lkdGg6IDk4NC41MTkwNTgyMjc1MzkxcHg7IiBoZWlnaHQ9IjUzIiBhcmlhLWxhYmVsbGVkYnk9ImNoYXJ0LXRpdGxlLWdlTWVybWFpZE91dHB1dC0xNzM0MzY1NjMyNDkxIGNoYXJ0LWRlc2MtZ2VNZXJtYWlkT3V0cHV0LTE3MzQzNjU2MzI0OTEiIHJvbGU9ImltZyIgeG1sbnM6eGxpbms9Imh0dHA6Ly93d3cudzMub3JnLzE5OTkveGxpbmsiIHhtbG5zPSJodHRwOi8vd3d3LnczLm9yZy8yMDAwL3N2ZyIgd2lkdGg9IjEwMCUiIGlkPSJnZU1lcm1haWRPdXRwdXQtMTczNDM2NTYzMjQ5MSI+PHRpdGxlIGlkPSJjaGFydC10aXRsZS1nZU1lcm1haWRPdXRwdXQtMTczNDM2NTYzMjQ5MSI+PC90aXRsZT48ZGVzYyBpZD0iY2hhcnQtZGVzYy1nZU1lcm1haWRPdXRwdXQtMTczNDM2NTYzMjQ5MSI+PC9kZXNjPjxzdHlsZT4jZ2VNZXJtYWlkT3V0cHV0LTE3MzQzNjU2MzI0OTEge2ZvbnQtZmFtaWx5OiJ0cmVidWNoZXQgbXMiLHZlcmRhbmEsYXJpYWwsc2Fucy1zZXJpZjtmb250LXNpemU6MTZweDtmaWxsOiMwMDAwMDA7fSNnZU1lcm1haWRPdXRwdXQtMTczNDM2NTYzMjQ5MSAuZXJyb3ItaWNvbntmaWxsOiM1NTIyMjI7fSNnZU1lcm1haWRPdXRwdXQtMTczNDM2NTYzMjQ5MSAuZXJyb3ItdGV4dHtmaWxsOiM1NTIyMjI7c3Ryb2tlOiM1NTIyMjI7fSNnZU1lcm1haWRPdXRwdXQtMTczNDM2NTYzMjQ5MSAuZWRnZS10aGlja25lc3Mtbm9ybWFse3N0cm9rZS13aWR0aDoycHg7fSNnZU1lcm1haWRPdXRwdXQtMTczNDM2NTYzMjQ5MSAuZWRnZS10aGlja25lc3MtdGhpY2t7c3Ryb2tlLXdpZHRoOjMuNXB4O30jZ2VNZXJtYWlkT3V0cHV0LTE3MzQzNjU2MzI0OTEgLmVkZ2UtcGF0dGVybi1zb2xpZHtzdHJva2UtZGFzaGFycmF5OjA7fSNnZU1lcm1haWRPdXRwdXQtMTczNDM2NTYzMjQ5MSAuZWRnZS1wYXR0ZXJuLWRhc2hlZHtzdHJva2UtZGFzaGFycmF5OjM7fSNnZU1lcm1haWRPdXRwdXQtMTczNDM2NTYzMjQ5MSAuZWRnZS1wYXR0ZXJuLWRvdHRlZHtzdHJva2UtZGFzaGFycmF5OjI7fSNnZU1lcm1haWRPdXRwdXQtMTczNDM2NTYzMjQ5MSAubWFya2Vye2ZpbGw6IzY2NjtzdHJva2U6IzY2Njt9I2dlTWVybWFpZE91dHB1dC0xNzM0MzY1NjMyNDkxIC5tYXJrZXIuY3Jvc3N7c3Ryb2tlOiM2NjY7fSNnZU1lcm1haWRPdXRwdXQtMTczNDM2NTYzMjQ5MSBzdmd7Zm9udC1mYW1pbHk6InRyZWJ1Y2hldCBtcyIsdmVyZGFuYSxhcmlhbCxzYW5zLXNlcmlmO2ZvbnQtc2l6ZToxNnB4O30jZ2VNZXJtYWlkT3V0cHV0LTE3MzQzNjU2MzI0OTEgLmxhYmVse2ZvbnQtZmFtaWx5OiJ0cmVidWNoZXQgbXMiLHZlcmRhbmEsYXJpYWwsc2Fucy1zZXJpZjtjb2xvcjojMDAwMDAwO30jZ2VNZXJtYWlkT3V0cHV0LTE3MzQzNjU2MzI0OTEgLmNsdXN0ZXItbGFiZWwgdGV4dHtmaWxsOiMzMzM7fSNnZU1lcm1haWRPdXRwdXQtMTczNDM2NTYzMjQ5MSAuY2x1c3Rlci1sYWJlbCBzcGFue2NvbG9yOiMzMzM7fSNnZU1lcm1haWRPdXRwdXQtMTczNDM2NTYzMjQ5MSAubGFiZWwgdGV4dCwjZ2VNZXJtYWlkT3V0cHV0LTE3MzQzNjU2MzI0OTEgc3BhbntmaWxsOiMwMDAwMDA7Y29sb3I6IzAwMDAwMDt9I2dlTWVybWFpZE91dHB1dC0xNzM0MzY1NjMyNDkxIC5ub2RlIHJlY3QsI2dlTWVybWFpZE91dHB1dC0xNzM0MzY1NjMyNDkxIC5ub2RlIGNpcmNsZSwjZ2VNZXJtYWlkT3V0cHV0LTE3MzQzNjU2MzI0OTEgLm5vZGUgZWxsaXBzZSwjZ2VNZXJtYWlkT3V0cHV0LTE3MzQzNjU2MzI0OTEgLm5vZGUgcG9seWdvbiwjZ2VNZXJtYWlkT3V0cHV0LTE3MzQzNjU2MzI0OTEgLm5vZGUgcGF0aHtmaWxsOiNlZWU7c3Ryb2tlOiM5OTk7c3Ryb2tlLXdpZHRoOjFweDt9I2dlTWVybWFpZE91dHB1dC0xNzM0MzY1NjMyNDkxIC5ub2RlIC5sYWJlbHt0ZXh0LWFsaWduOmNlbnRlcjt9I2dlTWVybWFpZE91dHB1dC0xNzM0MzY1NjMyNDkxIC5ub2RlLmNsaWNrYWJsZXtjdXJzb3I6cG9pbnRlcjt9I2dlTWVybWFpZE91dHB1dC0xNzM0MzY1NjMyNDkxIC5hcnJvd2hlYWRQYXRoe2ZpbGw6IzMzMzMzMzt9I2dlTWVybWFpZE91dHB1dC0xNzM0MzY1NjMyNDkxIC5lZGdlUGF0aCAucGF0aHtzdHJva2U6IzY2NjtzdHJva2Utd2lkdGg6Mi4wcHg7fSNnZU1lcm1haWRPdXRwdXQtMTczNDM2NTYzMjQ5MSAuZmxvd2NoYXJ0LWxpbmt7c3Ryb2tlOiM2NjY7ZmlsbDpub25lO30jZ2VNZXJtYWlkT3V0cHV0LTE3MzQzNjU2MzI0OTEgLmVkZ2VMYWJlbHtiYWNrZ3JvdW5kLWNvbG9yOndoaXRlO3RleHQtYWxpZ246Y2VudGVyO30jZ2VNZXJtYWlkT3V0cHV0LTE3MzQzNjU2MzI0OTEgLmVkZ2VMYWJlbCByZWN0e29wYWNpdHk6MC41O2JhY2tncm91bmQtY29sb3I6d2hpdGU7ZmlsbDp3aGl0ZTt9I2dlTWVybWFpZE91dHB1dC0xNzM0MzY1NjMyNDkxIC5jbHVzdGVyIHJlY3R7ZmlsbDpoc2woMCwgMCUsIDk4LjkyMTU2ODYyNzUlKTtzdHJva2U6IzcwNzA3MDtzdHJva2Utd2lkdGg6MXB4O30jZ2VNZXJtYWlkT3V0cHV0LTE3MzQzNjU2MzI0OTEgLmNsdXN0ZXIgdGV4dHtmaWxsOiMzMzM7fSNnZU1lcm1haWRPdXRwdXQtMTczNDM2NTYzMjQ5MSAuY2x1c3RlciBzcGFue2NvbG9yOiMzMzM7fSNnZU1lcm1haWRPdXRwdXQtMTczNDM2NTYzMjQ5MSBkaXYubWVybWFpZFRvb2x0aXB7cG9zaXRpb246YWJzb2x1dGU7dGV4dC1hbGlnbjpjZW50ZXI7bWF4LXdpZHRoOjIwMHB4O3BhZGRpbmc6MnB4O2ZvbnQtZmFtaWx5OiJ0cmVidWNoZXQgbXMiLHZlcmRhbmEsYXJpYWwsc2Fucy1zZXJpZjtmb250LXNpemU6MTJweDtiYWNrZ3JvdW5kOmhzbCgtMTYwLCAwJSwgOTMuMzMzMzMzMzMzMyUpO2JvcmRlcjoxcHggc29saWQgIzcwNzA3MDtib3JkZXItcmFkaXVzOjJweDtwb2ludGVyLWV2ZW50czpub25lO3otaW5kZXg6MTAwO30jZ2VNZXJtYWlkT3V0cHV0LTE3MzQzNjU2MzI0OTEgOnJvb3R7LS1tZXJtYWlkLWZvbnQtZmFtaWx5OiJ0cmVidWNoZXQgbXMiLHZlcmRhbmEsYXJpYWwsc2Fucy1zZXJpZjt9I2dlTWVybWFpZE91dHB1dC0xNzM0MzY1NjMyNDkxIC5jb25kaXRpb24gcGF0aHtmaWxsOiNGRkZGNzAhaW1wb3J0YW50O30jZ2VNZXJtYWlkT3V0cHV0LTE3MzQzNjU2MzI0OTEgLmNvbmRpdGlvbiByZWN0e2ZpbGw6I0ZGRkY3MCFpbXBvcnRhbnQ7fSNnZU1lcm1haWRPdXRwdXQtMTczNDM2NTYzMjQ5MSAuY29uZGl0aW9uIHBvbHlnb257ZmlsbDojRkZGRjcwIWltcG9ydGFudDt9I2dlTWVybWFpZE91dHB1dC0xNzM0MzY1NjMyNDkxIC5jb25kaXRpb24gZWxsaXBzZXtmaWxsOiNGRkZGNzAhaW1wb3J0YW50O30jZ2VNZXJtYWlkT3V0cHV0LTE3MzQzNjU2MzI0OTEgLmNvbmRpdGlvbiBjaXJjbGV7ZmlsbDojRkZGRjcwIWltcG9ydGFudDt9I2dlTWVybWFpZE91dHB1dC0xNzM0MzY1NjMyNDkxIC5zdGFydCBwYXRoe2ZpbGw6I0IyRkY3MCFpbXBvcnRhbnQ7fSNnZU1lcm1haWRPdXRwdXQtMTczNDM2NTYzMjQ5MSAuc3RhcnQgcmVjdHtmaWxsOiNCMkZGNzAhaW1wb3J0YW50O30jZ2VNZXJtYWlkT3V0cHV0LTE3MzQzNjU2MzI0OTEgLnN0YXJ0IHBvbHlnb257ZmlsbDojQjJGRjcwIWltcG9ydGFudDt9I2dlTWVybWFpZE91dHB1dC0xNzM0MzY1NjMyNDkxIC5zdGFydCBlbGxpcHNle2ZpbGw6I0IyRkY3MCFpbXBvcnRhbnQ7fSNnZU1lcm1haWRPdXRwdXQtMTczNDM2NTYzMjQ5MSAuc3RhcnQgY2lyY2xle2ZpbGw6I0IyRkY3MCFpbXBvcnRhbnQ7fSNnZU1lcm1haWRPdXRwdXQtMTczNDM2NTYzMjQ5MSAuc3RvcCBwYXRoe2ZpbGw6I0ZGNTk1OSFpbXBvcnRhbnQ7fSNnZU1lcm1haWRPdXRwdXQtMTczNDM2NTYzMjQ5MSAuc3RvcCByZWN0e2ZpbGw6I0ZGNTk1OSFpbXBvcnRhbnQ7fSNnZU1lcm1haWRPdXRwdXQtMTczNDM2NTYzMjQ5MSAuc3RvcCBwb2x5Z29ue2ZpbGw6I0ZGNTk1OSFpbXBvcnRhbnQ7fSNnZU1lcm1haWRPdXRwdXQtMTczNDM2NTYzMjQ5MSAuc3RvcCBlbGxpcHNle2ZpbGw6I0ZGNTk1OSFpbXBvcnRhbnQ7fSNnZU1lcm1haWRPdXRwdXQtMTczNDM2NTYzMjQ5MSAuc3RvcCBjaXJjbGV7ZmlsbDojRkY1OTU5IWltcG9ydGFudDt9PC9zdHlsZT48ZyB0cmFuc2Zvcm09InRyYW5zbGF0ZSgwLCAwKSI+PG1hcmtlciBvcmllbnQ9ImF1dG8iIG1hcmtlckhlaWdodD0iMTIiIG1hcmtlcldpZHRoPSIxMiIgbWFya2VyVW5pdHM9InVzZXJTcGFjZU9uVXNlIiByZWZZPSI1IiByZWZYPSI5IiB2aWV3Qm94PSIwIDAgMTAgMTAiIGNsYXNzPSJtYXJrZXIgZmxvd2NoYXJ0IiBpZD0iZmxvd2NoYXJ0LXBvaW50RW5kIj48cGF0aCBzdHlsZT0ic3Ryb2tlLXdpZHRoOiAxOyBzdHJva2UtZGFzaGFycmF5OiAxLCAwOyIgY2xhc3M9ImFycm93TWFya2VyUGF0aCIgZD0iTSAwIDAgTCAxMCA1IEwgMCAxMCB6Ij48L3BhdGg+PC9tYXJrZXI+PG1hcmtlciBvcmllbnQ9ImF1dG8iIG1hcmtlckhlaWdodD0iMTIiIG1hcmtlcldpZHRoPSIxMiIgbWFya2VyVW5pdHM9InVzZXJTcGFjZU9uVXNlIiByZWZZPSI1IiByZWZYPSIwIiB2aWV3Qm94PSIwIDAgMTAgMTAiIGNsYXNzPSJtYXJrZXIgZmxvd2NoYXJ0IiBpZD0iZmxvd2NoYXJ0LXBvaW50U3RhcnQiPjxwYXRoIHN0eWxlPSJzdHJva2Utd2lkdGg6IDE7IHN0cm9rZS1kYXNoYXJyYXk6IDEsIDA7IiBjbGFzcz0iYXJyb3dNYXJrZXJQYXRoIiBkPSJNIDAgNSBMIDEwIDEwIEwgMTAgMCB6Ij48L3BhdGg+PC9tYXJrZXI+PG1hcmtlciBvcmllbnQ9ImF1dG8iIG1hcmtlckhlaWdodD0iMTEiIG1hcmtlcldpZHRoPSIxMSIgbWFya2VyVW5pdHM9InVzZXJTcGFjZU9uVXNlIiByZWZZPSI1IiByZWZYPSIxMSIgdmlld0JveD0iMCAwIDEwIDEwIiBjbGFzcz0ibWFya2VyIGZsb3djaGFydCIgaWQ9ImZsb3djaGFydC1jaXJjbGVFbmQiPjxjaXJjbGUgc3R5bGU9InN0cm9rZS13aWR0aDogMTsgc3Ryb2tlLWRhc2hhcnJheTogMSwgMDsiIGNsYXNzPSJhcnJvd01hcmtlclBhdGgiIHI9IjUiIGN5PSI1IiBjeD0iNSI+PC9jaXJjbGU+PC9tYXJrZXI+PG1hcmtlciBvcmllbnQ9ImF1dG8iIG1hcmtlckhlaWdodD0iMTEiIG1hcmtlcldpZHRoPSIxMSIgbWFya2VyVW5pdHM9InVzZXJTcGFjZU9uVXNlIiByZWZZPSI1IiByZWZYPSItMSIgdmlld0JveD0iMCAwIDEwIDEwIiBjbGFzcz0ibWFya2VyIGZsb3djaGFydCIgaWQ9ImZsb3djaGFydC1jaXJjbGVTdGFydCI+PGNpcmNsZSBzdHlsZT0ic3Ryb2tlLXdpZHRoOiAxOyBzdHJva2UtZGFzaGFycmF5OiAxLCAwOyIgY2xhc3M9ImFycm93TWFya2VyUGF0aCIgcj0iNSIgY3k9IjUiIGN4PSI1Ij48L2NpcmNsZT48L21hcmtlcj48bWFya2VyIG9yaWVudD0iYXV0byIgbWFya2VySGVpZ2h0PSIxMSIgbWFya2VyV2lkdGg9IjExIiBtYXJrZXJVbml0cz0idXNlclNwYWNlT25Vc2UiIHJlZlk9IjUuMiIgcmVmWD0iMTIiIHZpZXdCb3g9IjAgMCAxMSAxMSIgY2xhc3M9Im1hcmtlciBjcm9zcyBmbG93Y2hhcnQiIGlkPSJmbG93Y2hhcnQtY3Jvc3NFbmQiPjxwYXRoIHN0eWxlPSJzdHJva2Utd2lkdGg6IDI7IHN0cm9rZS1kYXNoYXJyYXk6IDEsIDA7IiBjbGFzcz0iYXJyb3dNYXJrZXJQYXRoIiBkPSJNIDEsMSBsIDksOSBNIDEwLDEgbCAtOSw5Ij48L3BhdGg+PC9tYXJrZXI+PG1hcmtlciBvcmllbnQ9ImF1dG8iIG1hcmtlckhlaWdodD0iMTEiIG1hcmtlcldpZHRoPSIxMSIgbWFya2VyVW5pdHM9InVzZXJTcGFjZU9uVXNlIiByZWZZPSI1LjIiIHJlZlg9Ii0xIiB2aWV3Qm94PSIwIDAgMTEgMTEiIGNsYXNzPSJtYXJrZXIgY3Jvc3MgZmxvd2NoYXJ0IiBpZD0iZmxvd2NoYXJ0LWNyb3NzU3RhcnQiPjxwYXRoIHN0eWxlPSJzdHJva2Utd2lkdGg6IDI7IHN0cm9rZS1kYXNoYXJyYXk6IDEsIDA7IiBjbGFzcz0iYXJyb3dNYXJrZXJQYXRoIiBkPSJNIDEsMSBsIDksOSBNIDEwLDEgbCAtOSw5Ij48L3BhdGg+PC9tYXJrZXI+PGcgY2xhc3M9InJvb3QiPjxnIGNsYXNzPSJjbHVzdGVycyI+PC9nPjxnIGNsYXNzPSJlZGdlUGF0aHMiPjxwYXRoIG1hcmtlci1lbmQ9InVybCgjZmxvd2NoYXJ0LXBvaW50RW5kKSIgc3R5bGU9ImZpbGw6bm9uZTsiIGNsYXNzPSJlZGdlLXRoaWNrbmVzcy1ub3JtYWwgZWRnZS1wYXR0ZXJuLXNvbGlkIGZsb3djaGFydC1saW5rIExTLXN0YXJ0IExFLXN0MSIgaWQ9Ikwtc3RhcnQtc3QxLTAiIGQ9Ik02OC4zOTQwNTgyMjc1MzkwNiwyNi41TDcyLjU2MDcyNDg5NDIwNTczLDI2LjVDNzYuNzI3MzkxNTYwODcyMzksMjYuNSw4NS4wNjA3MjQ4OTQyMDU3MywyNi41LDkzLjM5NDA1ODIyNzUzOTA2LDI2LjVDMTAxLjcyNzM5MTU2MDg3MjM5LDI2LjUsMTEwLjA2MDcyNDg5NDIwNTczLDI2LjUsMTE0LjIyNzM5MTU2MDg3MjM5LDI2LjVMMTE4LjM5NDA1ODIyNzUzOTA2LDI2LjUiPjwvcGF0aD48cGF0aCBtYXJrZXItZW5kPSJ1cmwoI2Zsb3djaGFydC1wb2ludEVuZCkiIHN0eWxlPSJmaWxsOm5vbmU7IiBjbGFzcz0iZWRnZS10aGlja25lc3Mtbm9ybWFsIGVkZ2UtcGF0dGVybi1zb2xpZCBmbG93Y2hhcnQtbGluayBMUy1zdDEgTEUtc3QyIiBpZD0iTC1zdDEtc3QyLTAiIGQ9Ik0yOTAuMTQ0MDU4MjI3NTM5MDYsMjYuNUwyOTQuMzEwNzI0ODk0MjA1NzUsMjYuNUMyOTguNDc3MzkxNTYwODcyNCwyNi41LDMwNi44MTA3MjQ4OTQyMDU3NSwyNi41LDMxNS4xNDQwNTgyMjc1MzkwNiwyNi41QzMyMy40NzczOTE1NjA4NzI0LDI2LjUsMzMxLjgxMDcyNDg5NDIwNTc1LDI2LjUsMzM1Ljk3NzM5MTU2MDg3MjQsMjYuNUwzNDAuMTQ0MDU4MjI3NTM5MDYsMjYuNSI+PC9wYXRoPjxwYXRoIG1hcmtlci1lbmQ9InVybCgjZmxvd2NoYXJ0LXBvaW50RW5kKSIgc3R5bGU9ImZpbGw6bm9uZTsiIGNsYXNzPSJlZGdlLXRoaWNrbmVzcy1ub3JtYWwgZWRnZS1wYXR0ZXJuLXNvbGlkIGZsb3djaGFydC1saW5rIExTLXN0MiBMRS1zdDMiIGlkPSJMLXN0Mi1zdDMtMCIgZD0iTTUwOC4yMzc4MDgyMjc1MzkwNiwyNi41TDUxMi40MDQ0NzQ4OTQyMDU3LDI2LjVDNTE2LjU3MTE0MTU2MDg3MjQsMjYuNSw1MjQuOTA0NDc0ODk0MjA1NywyNi41LDUzMy4yMzc4MDgyMjc1MzkxLDI2LjVDNTQxLjU3MTE0MTU2MDg3MjQsMjYuNSw1NDkuOTA0NDc0ODk0MjA1NywyNi41LDU1NC4wNzExNDE1NjA4NzI0LDI2LjVMNTU4LjIzNzgwODIyNzUzOTEsMjYuNSI+PC9wYXRoPjxwYXRoIG1hcmtlci1lbmQ9InVybCgjZmxvd2NoYXJ0LXBvaW50RW5kKSIgc3R5bGU9ImZpbGw6bm9uZTsiIGNsYXNzPSJlZGdlLXRoaWNrbmVzcy1ub3JtYWwgZWRnZS1wYXR0ZXJuLXNvbGlkIGZsb3djaGFydC1saW5rIExTLXN0MyBMRS1zdDQiIGlkPSJMLXN0My1zdDQtMCIgZD0iTTY3Mi45NDA5MzMyMjc1MzkxLDI2LjVMNjc3LjEwNzU5OTg5NDIwNTcsMjYuNUM2ODEuMjc0MjY2NTYwODcyNCwyNi41LDY4OS42MDc1OTk4OTQyMDU3LDI2LjUsNjk3Ljk0MDkzMzIyNzUzOTEsMjYuNUM3MDYuMjc0MjY2NTYwODcyNCwyNi41LDcxNC42MDc1OTk4OTQyMDU3LDI2LjUsNzE4Ljc3NDI2NjU2MDg3MjQsMjYuNUw3MjIuOTQwOTMzMjI3NTM5MSwyNi41Ij48L3BhdGg+PHBhdGggbWFya2VyLWVuZD0idXJsKCNmbG93Y2hhcnQtcG9pbnRFbmQpIiBzdHlsZT0iZmlsbDpub25lOyIgY2xhc3M9ImVkZ2UtdGhpY2tuZXNzLW5vcm1hbCBlZGdlLXBhdHRlcm4tc29saWQgZmxvd2NoYXJ0LWxpbmsgTFMtc3Q0IExFLXN0b3AiIGlkPSJMLXN0NC1zdG9wLTAiIGQ9Ik04NjguMTc1MzA4MjI3NTM5MSwyNi41TDg3Mi4zNDE5NzQ4OTQyMDU3LDI2LjVDODc2LjUwODY0MTU2MDg3MjQsMjYuNSw4ODQuODQxOTc0ODk0MjA1NywyNi41LDg5My4xNzUzMDgyMjc1MzkxLDI2LjVDOTAxLjUwODY0MTU2MDg3MjQsMjYuNSw5MDkuODQxOTc0ODk0MjA1NywyNi41LDkxNC4wMDg2NDE1NjA4NzI0LDI2LjVMOTE4LjE3NTMwODIyNzUzOTEsMjYuNSI+PC9wYXRoPjwvZz48ZyBjbGFzcz0iZWRnZUxhYmVscyI+PGcgY2xhc3M9ImVkZ2VMYWJlbCI+PGcgdHJhbnNmb3JtPSJ0cmFuc2xhdGUoMCwgMCkiIGNsYXNzPSJsYWJlbCI+PHJlY3QgaGVpZ2h0PSIwIiB3aWR0aD0iMCIgcnk9IjAiIHJ4PSIwIj48L3JlY3Q+PHRleHQgc3R5bGU9IiI+PHRzcGFuIGNsYXNzPSJyb3ciIHg9IjAiIGR5PSIxZW0iIHhtbDpzcGFjZT0icHJlc2VydmUiPjwvdHNwYW4+PC90ZXh0PjwvZz48L2c+PGcgY2xhc3M9ImVkZ2VMYWJlbCI+PGcgdHJhbnNmb3JtPSJ0cmFuc2xhdGUoMCwgMCkiIGNsYXNzPSJsYWJlbCI+PHJlY3QgaGVpZ2h0PSIwIiB3aWR0aD0iMCIgcnk9IjAiIHJ4PSIwIj48L3JlY3Q+PHRleHQgc3R5bGU9IiI+PHRzcGFuIGNsYXNzPSJyb3ciIHg9IjAiIGR5PSIxZW0iIHhtbDpzcGFjZT0icHJlc2VydmUiPjwvdHNwYW4+PC90ZXh0PjwvZz48L2c+PGcgY2xhc3M9ImVkZ2VMYWJlbCI+PGcgdHJhbnNmb3JtPSJ0cmFuc2xhdGUoMCwgMCkiIGNsYXNzPSJsYWJlbCI+PHJlY3QgaGVpZ2h0PSIwIiB3aWR0aD0iMCIgcnk9IjAiIHJ4PSIwIj48L3JlY3Q+PHRleHQgc3R5bGU9IiI+PHRzcGFuIGNsYXNzPSJyb3ciIHg9IjAiIGR5PSIxZW0iIHhtbDpzcGFjZT0icHJlc2VydmUiPjwvdHNwYW4+PC90ZXh0PjwvZz48L2c+PGcgY2xhc3M9ImVkZ2VMYWJlbCI+PGcgdHJhbnNmb3JtPSJ0cmFuc2xhdGUoMCwgMCkiIGNsYXNzPSJsYWJlbCI+PHJlY3QgaGVpZ2h0PSIwIiB3aWR0aD0iMCIgcnk9IjAiIHJ4PSIwIj48L3JlY3Q+PHRleHQgc3R5bGU9IiI+PHRzcGFuIGNsYXNzPSJyb3ciIHg9IjAiIGR5PSIxZW0iIHhtbDpzcGFjZT0icHJlc2VydmUiPjwvdHNwYW4+PC90ZXh0PjwvZz48L2c+PGcgY2xhc3M9ImVkZ2VMYWJlbCI+PGcgdHJhbnNmb3JtPSJ0cmFuc2xhdGUoMCwgMCkiIGNsYXNzPSJsYWJlbCI+PHJlY3QgaGVpZ2h0PSIwIiB3aWR0aD0iMCIgcnk9IjAiIHJ4PSIwIj48L3JlY3Q+PHRleHQgc3R5bGU9IiI+PHRzcGFuIGNsYXNzPSJyb3ciIHg9IjAiIGR5PSIxZW0iIHhtbDpzcGFjZT0icHJlc2VydmUiPjwvdHNwYW4+PC90ZXh0PjwvZz48L2c+PC9nPjxnIGNsYXNzPSJub2RlcyI+PGcgdHJhbnNmb3JtPSJ0cmFuc2xhdGUoMzguMTk3MDI5MTEzNzY5NTMsIDI2LjUpIiBpZD0iZmxvd2NoYXJ0LXN0YXJ0LTg4IiBjbGFzcz0ibm9kZSBkZWZhdWx0IHN0YXJ0Ij48cmVjdCBoZWlnaHQ9IjM3IiB3aWR0aD0iNjAuMzk0MDU4MjI3NTM5MDYiIHk9Ii0xOC41IiB4PSItMzAuMTk3MDI5MTEzNzY5NTMiIHJ5PSIxOC41IiByeD0iMTguNSIgc3R5bGU9IiI+PC9yZWN0PjxnIHRyYW5zZm9ybT0idHJhbnNsYXRlKC0xOC4wNzIwMjkxMTM3Njk1MywgLTExKSIgc3R5bGU9IiIgY2xhc3M9ImxhYmVsIj48dGV4dCBzdHlsZT0iIj48dHNwYW4gY2xhc3M9InJvdyIgeD0iMCIgZHk9IjFlbSIgeG1sOnNwYWNlPSJwcmVzZXJ2ZSI+U3RhcnQ8L3RzcGFuPjwvdGV4dD48L2c+PC9nPjxnIHRyYW5zZm9ybT0idHJhbnNsYXRlKDk0Ny4zNDcxODMyMjc1MzkxLCAyNi41KSIgaWQ9ImZsb3djaGFydC1zdG9wLTg5IiBjbGFzcz0ibm9kZSBkZWZhdWx0IHN0b3AiPjxyZWN0IGhlaWdodD0iMzciIHdpZHRoPSI1OC4zNDM3NSIgeT0iLTE4LjUiIHg9Ii0yOS4xNzE4NzUiIHJ5PSIxOC41IiByeD0iMTguNSIgc3R5bGU9IiI+PC9yZWN0PjxnIHRyYW5zZm9ybT0idHJhbnNsYXRlKC0xNy4wNDY4NzUsIC0xMSkiIHN0eWxlPSIiIGNsYXNzPSJsYWJlbCI+PHRleHQgc3R5bGU9IiI+PHRzcGFuIGNsYXNzPSJyb3ciIHg9IjAiIGR5PSIxZW0iIHhtbDpzcGFjZT0icHJlc2VydmUiPlN0b3A8L3RzcGFuPjwvdGV4dD48L2c+PC9nPjxnIHRyYW5zZm9ybT0idHJhbnNsYXRlKDIwNC4yNjkwNTgyMjc1MzkwNiwgMjYuNSkiIGlkPSJmbG93Y2hhcnQtc3QxLTkwIiBjbGFzcz0ibm9kZSBkZWZhdWx0IGRlZmF1bHQiPjxyZWN0IGhlaWdodD0iMzciIHdpZHRoPSIxNzEuNzUiIHk9Ii0xOC41IiB4PSItODUuODc1IiByeT0iNSIgcng9IjUiIHN0eWxlPSIiIGNsYXNzPSJiYXNpYyBsYWJlbC1jb250YWluZXIiPjwvcmVjdD48ZyB0cmFuc2Zvcm09InRyYW5zbGF0ZSgtNzguMzc1LCAtMTEpIiBzdHlsZT0iIiBjbGFzcz0ibGFiZWwiPjx0ZXh0IHN0eWxlPSIiPjx0c3BhbiBjbGFzcz0icm93IiB4PSIwIiBkeT0iMWVtIiB4bWw6c3BhY2U9InByZXNlcnZlIj5Db25uZWN0IHRvIERhdGFiYXNlPC90c3Bhbj48L3RleHQ+PC9nPjwvZz48ZyB0cmFuc2Zvcm09InRyYW5zbGF0ZSg0MjQuMTkwOTMzMjI3NTM5MDYsIDI2LjUpIiBpZD0iZmxvd2NoYXJ0LXN0Mi05MSIgY2xhc3M9Im5vZGUgZGVmYXVsdCBkZWZhdWx0Ij48cmVjdCBoZWlnaHQ9IjM3IiB3aWR0aD0iMTY4LjA5Mzc1IiB5PSItMTguNSIgeD0iLTg0LjA0Njg3NSIgcnk9IjUiIHJ4PSI1IiBzdHlsZT0iIiBjbGFzcz0iYmFzaWMgbGFiZWwtY29udGFpbmVyIj48L3JlY3Q+PGcgdHJhbnNmb3JtPSJ0cmFuc2xhdGUoLTc2LjU0Njg3NSwgLTExKSIgc3R5bGU9IiIgY2xhc3M9ImxhYmVsIj48dGV4dCBzdHlsZT0iIj48dHNwYW4gY2xhc3M9InJvdyIgeD0iMCIgZHk9IjFlbSIgeG1sOnNwYWNlPSJwcmVzZXJ2ZSI+SW5wdXQgV29ya2VkIEhvdXJzPC90c3Bhbj48L3RleHQ+PC9nPjwvZz48ZyB0cmFuc2Zvcm09InRyYW5zbGF0ZSg2MTUuNTg5MzcwNzI3NTM5MSwgMjYuNSkiIGlkPSJmbG93Y2hhcnQtc3QzLTkyIiBjbGFzcz0ibm9kZSBkZWZhdWx0IGRlZmF1bHQiPjxyZWN0IGhlaWdodD0iMzciIHdpZHRoPSIxMTQuNzAzMTI1IiB5PSItMTguNSIgeD0iLTU3LjM1MTU2MjUiIHJ5PSI1IiByeD0iNSIgc3R5bGU9IiIgY2xhc3M9ImJhc2ljIGxhYmVsLWNvbnRhaW5lciI+PC9yZWN0PjxnIHRyYW5zZm9ybT0idHJhbnNsYXRlKC00OS44NTE1NjI1LCAtMTEpIiBzdHlsZT0iIiBjbGFzcz0ibGFiZWwiPjx0ZXh0IHN0eWxlPSIiPjx0c3BhbiBjbGFzcz0icm93IiB4PSIwIiBkeT0iMWVtIiB4bWw6c3BhY2U9InByZXNlcnZlIj5WYWxpZGF0ZSBEYXRhPC90c3Bhbj48L3RleHQ+PC9nPjwvZz48ZyB0cmFuc2Zvcm09InRyYW5zbGF0ZSg3OTUuNTU4MTIwNzI3NTM5MSwgMjYuNSkiIGlkPSJmbG93Y2hhcnQtc3Q0LTkzIiBjbGFzcz0ibm9kZSBkZWZhdWx0IGRlZmF1bHQiPjxyZWN0IGhlaWdodD0iMzciIHdpZHRoPSIxNDUuMjM0Mzc1IiB5PSItMTguNSIgeD0iLTcyLjYxNzE4NzUiIHJ5PSI1IiByeD0iNSIgc3R5bGU9IiIgY2xhc3M9ImJhc2ljIGxhYmVsLWNvbnRhaW5lciI+PC9yZWN0PjxnIHRyYW5zZm9ybT0idHJhbnNsYXRlKC02NS4xMTcxODc1LCAtMTEpIiBzdHlsZT0iIiBjbGFzcz0ibGFiZWwiPjx0ZXh0IHN0eWxlPSIiPjx0c3BhbiBjbGFzcz0icm93IiB4PSIwIiBkeT0iMWVtIiB4bWw6c3BhY2U9InByZXNlcnZlIj5VcGRhdGUgRGF0YWJhc2U8L3RzcGFuPjwvdGV4dD48L2c+PC9nPjwvZz48L2c+PC9nPjwvc3ZnPg==;" vertex="1" parent="1">
                        <mxGeometry x="-950" y="890" width="2490" height="430" as="geometry"/>
                    </mxCell>
                </UserObject>
                <mxCell id="8" value="Inserting Employee Working Hours:" style="text;html=1;align=center;verticalAlign=middle;resizable=0;points=[];autosize=1;strokeColor=none;fillColor=none;fontStyle=1;fontSize=40;" vertex="1" parent="1">
                    <mxGeometry x="-950" y="920" width="730" height="60" as="geometry"/>
                </mxCell>
            </root>
        </mxGraphModel>
    </diagram>
</mxfile>